<svg width="184" height="96" viewBox="0 0 184 96" fill="none" xmlns="http://www.w3.org/2000/svg">
<path d="M10.252 32.5H171.314C172.045 32.5 172.669 33.0263 172.793 33.7461L183.105 93.7461C183.263 94.6625 182.557 95.5 181.627 95.5H2.2832C1.37642 95.5 0.676672 94.7016 0.795898 93.8027L8.76465 33.8027C8.86367 33.0572 9.49986 32.5 10.252 32.5Z" stroke="black"/>
<path d="M19.252 7.5H161.748C161.971 7.50016 162.167 7.6474 162.229 7.86133L169.151 31.8613C169.244 32.181 169.004 32.4999 168.671 32.5H12.3291C11.9965 32.4999 11.7564 32.181 11.8486 31.8613L18.7715 7.86133C18.8332 7.6474 19.0293 7.50016 19.252 7.5Z" stroke="black"/>
<path d="M22.3203 0.5H158.68C158.92 0.500065 159.127 0.671639 159.171 0.908203L160.288 6.9082C160.345 7.21565 160.11 7.49986 159.797 7.5H21.2031C20.8904 7.49985 20.6547 7.21564 20.7119 6.9082L21.8291 0.908203C21.8733 0.671626 22.0796 0.500061 22.3203 0.5Z" stroke="black"/>
<path d="M21 12.5H159" stroke="black"/>
<path d="M19.5 16.5L161 16.5" stroke="black"/>
<path d="M17.5 20.5L163 20.5" stroke="black"/>
<g filter="url(#filter0_d_26_54)">
<line x1="25.4851" y1="2.12127" x2="24.4851" y2="6.12127" stroke="black"/>
</g>
<g filter="url(#filter1_d_26_54)">
<line x1="31.4851" y1="2.12127" x2="30.4851" y2="6.12127" stroke="black"/>
</g>
<g filter="url(#filter2_d_26_54)">
<line x1="37.4851" y1="2.12127" x2="36.4851" y2="6.12127" stroke="black"/>
</g>
<g filter="url(#filter3_d_26_54)">
<line x1="43.4851" y1="2.12127" x2="42.4851" y2="6.12127" stroke="black"/>
</g>
<g filter="url(#filter4_d_26_54)">
<line x1="49.4851" y1="2.12127" x2="48.4851" y2="6.12127" stroke="black"/>
</g>
<g filter="url(#filter5_d_26_54)">
<line x1="55.4851" y1="2.12127" x2="54.4851" y2="6.12127" stroke="black"/>
</g>
<g filter="url(#filter6_d_26_54)">
<line x1="61.4851" y1="2.12127" x2="60.4851" y2="6.12127" stroke="black"/>
</g>
<g filter="url(#filter7_d_26_54)">
<line x1="67.4851" y1="2.12127" x2="66.4851" y2="6.12127" stroke="black"/>
</g>
<g filter="url(#filter8_d_26_54)">
<line x1="73.4851" y1="2.12127" x2="72.4851" y2="6.12127" stroke="black"/>
</g>
<g filter="url(#filter9_d_26_54)">
<line x1="79.4851" y1="2.12127" x2="78.4851" y2="6.12127" stroke="black"/>
</g>
<g filter="url(#filter10_d_26_54)">
<line x1="85.4851" y1="2.12127" x2="84.4851" y2="6.12127" stroke="black"/>
</g>
<line x1="96.4851" y1="2.13557" x2="97.4851" y2="6.13557" stroke="black"/>
<line x1="102.485" y1="2.13557" x2="103.485" y2="6.13557" stroke="black"/>
<line x1="108.485" y1="2.13557" x2="109.485" y2="6.13557" stroke="black"/>
<line x1="114.485" y1="2.13557" x2="115.485" y2="6.13557" stroke="black"/>
<line x1="120.485" y1="2.13557" x2="121.485" y2="6.13557" stroke="black"/>
<line x1="126.485" y1="2.13557" x2="127.485" y2="6.13557" stroke="black"/>
<line x1="132.485" y1="2.13557" x2="133.485" y2="6.13557" stroke="black"/>
<line x1="138.485" y1="2.13557" x2="139.485" y2="6.13557" stroke="black"/>
<line x1="144.485" y1="2.13557" x2="145.485" y2="6.13557" stroke="black"/>
<line x1="150.485" y1="2.13557" x2="151.485" y2="6.13557" stroke="black"/>
<line x1="156.485" y1="2.13557" x2="157.485" y2="6.13557" stroke="black"/>
<line x1="90.4851" y1="2.13557" x2="91.4851" y2="6.13557" stroke="black"/>
<path d="M12.9053 39.5H20.8945C21.1903 39.5 21.422 39.7555 21.3926 40.0498L20.5928 48.0498C20.5672 48.3054 20.3516 48.5 20.0947 48.5H12.1055C11.8097 48.5 11.578 48.2445 11.6074 47.9502L12.4072 39.9502C12.4328 39.6946 12.6484 39.5 12.9053 39.5Z" stroke="black"/>
<path d="M39.9746 39.5L39.5244 48.5H30.5254L30.9756 39.5H39.9746Z" stroke="black"/>
<path d="M50.9746 39.5L50.5244 48.5H41.5254L41.9756 39.5H50.9746Z" stroke="black"/>
<path d="M61.9746 39.5L61.5244 48.5H52.5254L52.9756 39.5H61.9746Z" stroke="black"/>
<path d="M79.5 39.5V48.5H70.5254L70.9756 39.5H79.5Z" stroke="black"/>
<path d="M90.5 39.5V48.5H81.5V39.5H90.5Z" stroke="black"/>
<path d="M101.024 39.5L101.475 48.5H92.5V39.5H101.024Z" stroke="black"/>
<path d="M149.051 49.5H157.049C157.315 49.5 157.534 49.7087 157.548 49.9746L157.948 57.9746C157.963 58.26 157.735 58.4997 157.449 58.5H149.451C149.185 58.5 148.966 58.2913 148.952 58.0254L148.552 50.0254C148.537 49.74 148.765 49.5003 149.051 49.5Z" stroke="black"/>
<path d="M160.051 49.5H168.049C168.315 49.5 168.534 49.7087 168.548 49.9746L168.948 57.9746C168.963 58.26 168.735 58.4997 168.449 58.5H160.451C160.185 58.5 159.966 58.2913 159.952 58.0254L159.552 50.0254C159.537 49.74 159.765 49.5003 160.051 49.5Z" stroke="black"/>
<path d="M151.051 60.5H159.049C159.315 60.5 159.534 60.7087 159.548 60.9746L159.948 68.9746C159.963 69.26 159.735 69.4997 159.449 69.5H151.451C151.185 69.5 150.966 69.2913 150.952 69.0254L150.552 61.0254C150.537 60.74 150.765 60.5003 151.051 60.5Z" stroke="black"/>
<path d="M162.051 60.5H170.049C170.315 60.5 170.534 60.7087 170.548 60.9746L170.948 68.9746C170.963 69.26 170.735 69.4997 170.449 69.5H162.451C162.185 69.5 161.966 69.2913 161.952 69.0254L161.552 61.0254C161.537 60.74 161.765 60.5003 162.051 60.5Z" stroke="black"/>
<path d="M152.551 71.5H160.549C160.815 71.5 161.034 71.7087 161.048 71.9746L161.448 79.9746C161.463 80.26 161.235 80.4997 160.949 80.5H152.951C152.685 80.5 152.466 80.2913 152.452 80.0254L152.052 72.0254C152.037 71.74 152.265 71.5003 152.551 71.5Z" stroke="black"/>
<path d="M163.551 71.5H171.549C171.815 71.5 172.034 71.7087 172.048 71.9746L172.448 79.9746C172.463 80.26 172.235 80.4997 171.949 80.5H163.951C163.685 80.5 163.466 80.2913 163.452 80.0254L163.052 72.0254C163.037 71.74 163.265 71.5003 163.551 71.5Z" stroke="black"/>
<path d="M135.551 68.5H143.549C143.815 68.5 144.034 68.7087 144.048 68.9746L144.448 76.9746C144.463 77.26 144.235 77.4997 143.949 77.5H135.951C135.685 77.5 135.466 77.2913 135.452 77.0254L135.052 69.0254C135.037 68.74 135.265 68.5003 135.551 68.5Z" stroke="black"/>
<path d="M124.551 68.5H132.549C132.815 68.5 133.034 68.7087 133.048 68.9746L133.448 76.9746C133.463 77.26 133.235 77.4997 132.949 77.5H124.951C124.685 77.5 124.466 77.2913 124.452 77.0254L124.052 69.0254C124.037 68.74 124.265 68.5003 124.551 68.5Z" stroke="black"/>
<path d="M113.551 68.5H121.549C121.815 68.5 122.034 68.7087 122.048 68.9746L122.448 76.9746C122.463 77.26 122.235 77.4997 121.949 77.5H113.951C113.685 77.5 113.466 77.2913 113.452 77.0254L113.052 69.0254C113.037 68.74 113.265 68.5003 113.551 68.5Z" stroke="black"/>
<path d="M124.551 57.5H132.549C132.815 57.5 133.034 57.7087 133.048 57.9746L133.448 65.9746C133.463 66.26 133.235 66.4997 132.949 66.5H124.951C124.685 66.5 124.466 66.2913 124.452 66.0254L124.052 58.0254C124.037 57.74 124.265 57.5003 124.551 57.5Z" stroke="black"/>
<path d="M26.4512 54.5H34.4492C34.7349 54.5003 34.9625 54.74 34.9482 55.0254L34.5479 63.0254C34.5343 63.2913 34.3151 63.5 34.0488 63.5H26.0508C25.7651 63.4997 25.5375 63.26 25.5518 62.9746L25.9521 54.9746C25.9657 54.7087 26.1849 54.5 26.4512 54.5Z" stroke="black"/>
<path d="M10.3613 54.5H23.4492C23.7349 54.5003 23.9625 54.74 23.9482 55.0254L23.5479 63.0254C23.5343 63.2913 23.3151 63.5 23.0488 63.5H9.16113C8.85548 63.5 8.62165 63.2281 8.66699 62.9258L9.86719 54.9258C9.89936 54.7116 10.0639 54.5457 10.2705 54.5078L10.3613 54.5Z" stroke="black"/>
<path d="M33.4512 65.5H41.4492C41.7349 65.5003 41.9625 65.74 41.9482 66.0254L41.5479 74.0254C41.5343 74.2913 41.3151 74.5 41.0488 74.5H33.0508C32.7651 74.4997 32.5375 74.26 32.5518 73.9746L32.9521 65.9746C32.9657 65.7087 33.1849 65.5 33.4512 65.5Z" stroke="black"/>
<path d="M22.4512 65.5H30.4492C30.7349 65.5003 30.9625 65.74 30.9482 66.0254L30.5479 74.0254C30.5343 74.2913 30.3151 74.5 30.0488 74.5H22.0508C21.7651 74.4997 21.5375 74.26 21.5518 73.9746L21.9521 65.9746C21.9657 65.7087 22.1849 65.5 22.4512 65.5Z" stroke="black"/>
<path d="M8.90527 65.5H19.4492C19.7349 65.5003 19.9625 65.74 19.9482 66.0254L19.5479 74.0254C19.5343 74.2913 19.3151 74.5 19.0488 74.5H8.10547C7.80966 74.5 7.57799 74.2445 7.60742 73.9502L8.40723 65.9502C8.42959 65.7267 8.59711 65.5497 8.81055 65.5088L8.90527 65.5Z" stroke="black"/>
<path d="M25.3662 76.5H82.9863C83.2507 76.5 83.4693 76.7058 83.4854 76.9697L83.7891 81.9697C83.8065 82.2572 83.578 82.4999 83.29 82.5H25.0625C24.7745 82.5 24.546 82.2572 24.5635 81.9697L24.8672 76.9697C24.8832 76.7058 25.1018 76.5 25.3662 76.5Z" stroke="black"/>
<path d="M37.4512 54.5H45.4492C45.7349 54.5003 45.9625 54.74 45.9482 55.0254L45.5479 63.0254C45.5343 63.2913 45.3151 63.5 45.0488 63.5H37.0508C36.7651 63.4997 36.5375 63.26 36.5518 62.9746L36.9521 54.9746C36.9657 54.7087 37.1849 54.5 37.4512 54.5Z" stroke="black"/>
<path d="M44.4512 65.5H52C52.2761 65.5 52.5 65.7239 52.5 66V74C52.5 74.2761 52.2761 74.5 52 74.5H44.0508C43.7651 74.4997 43.5375 74.26 43.5518 73.9746L43.9521 65.9746C43.9657 65.7087 44.1849 65.5 44.4512 65.5Z" stroke="black"/>
<path d="M48.4512 54.5H56.4492C56.7349 54.5003 56.9625 54.74 56.9482 55.0254L56.5479 63.0254C56.5343 63.2913 56.3151 63.5 56.0488 63.5H48.0508C47.7651 63.4997 47.5375 63.26 47.5518 62.9746L47.9521 54.9746C47.9657 54.7087 48.1849 54.5 48.4512 54.5Z" stroke="black"/>
<rect x="54.5" y="65.5" width="9" height="9" rx="0.5" stroke="black"/>
<path d="M59.4512 54.5H67.4492C67.7349 54.5003 67.9625 54.74 67.9482 55.0254L67.5479 63.0254C67.5343 63.2913 67.3151 63.5 67.0488 63.5H59.0508C58.7651 63.4997 58.5375 63.26 58.5518 62.9746L58.9521 54.9746C58.9657 54.7087 59.1849 54.5 59.4512 54.5Z" stroke="black"/>
<rect x="65.5" y="65.5" width="9" height="9" rx="0.5" stroke="black"/>
<path d="M70.4512 54.5H78.4492C78.7349 54.5003 78.9625 54.74 78.9482 55.0254L78.5479 63.0254C78.5343 63.2913 78.3151 63.5 78.0488 63.5H70.0508C69.7651 63.4997 69.5375 63.26 69.5518 62.9746L69.9521 54.9746C69.9657 54.7087 70.1849 54.5 70.4512 54.5Z" stroke="black"/>
<path d="M77 65.5H85C85.2761 65.5 85.5 65.7239 85.5 66V74C85.5 74.2761 85.2761 74.5 85 74.5H77C76.7239 74.5 76.5 74.2761 76.5 74V66C76.5 65.7239 76.7239 65.5 77 65.5Z" stroke="black"/>
<path d="M81.4512 54.5H89C89.2761 54.5 89.5 54.7239 89.5 55V63C89.5 63.2761 89.2761 63.5 89 63.5H81.0508C80.7651 63.4997 80.5375 63.26 80.5518 62.9746L80.9521 54.9746C80.9657 54.7087 81.1849 54.5 81.4512 54.5Z" stroke="black"/>
<path d="M88 65.5H95.5488C95.8151 65.5 96.0343 65.7087 96.0479 65.9746L96.4482 73.9746C96.4625 74.26 96.2349 74.4997 95.9492 74.5H88C87.7239 74.5 87.5 74.2761 87.5 74V66C87.5 65.7239 87.7239 65.5 88 65.5Z" stroke="black"/>
<path d="M96.5742 76.5H104.569C104.831 76.5002 105.049 76.7033 105.067 76.9648L105.425 81.9648C105.445 82.2541 105.216 82.5 104.926 82.5H96.9307C96.6685 82.4998 96.4513 82.2967 96.4326 82.0352L96.0752 77.0352C96.0548 76.7459 96.2842 76.5 96.5742 76.5Z" stroke="black"/>
<path d="M85.7505 76.5H93.7456C94.0077 76.5002 94.225 76.7033 94.2437 76.9648L94.6011 81.9648C94.6215 82.2541 94.3921 82.5 94.1021 82.5H86.1069C85.8448 82.4998 85.6276 82.2967 85.6089 82.0352L85.2515 77.0352C85.2311 76.7459 85.4605 76.5 85.7505 76.5Z" stroke="black"/>
<path d="M14.4307 76.5H22.4258C22.7158 76.5 22.9452 76.7459 22.9248 77.0352L22.5674 82.0352C22.5487 82.2967 22.3315 82.4998 22.0693 82.5H14.0742C13.7842 82.5 13.5548 82.2541 13.5752 81.9648L13.9326 76.9648C13.949 76.7359 14.1173 76.5512 14.335 76.5088L14.4307 76.5Z" stroke="black"/>
<path d="M91.5858 62.6238V55.4974C91.5858 54.9451 92.0335 54.4974 92.5858 54.4974H103.057C103.587 54.4974 104.024 54.91 104.056 55.4384L105.127 73.5855C105.161 74.1599 104.704 74.6444 104.129 74.6444H99.5039C98.9858 74.6444 98.5535 74.2487 98.5078 73.7326L97.6934 64.5356C97.6477 64.0195 97.2154 63.6238 96.6973 63.6238H92.5858C92.0335 63.6238 91.5858 63.1761 91.5858 62.6238Z" stroke="black"/>
<line x1="165" y1="39.5" x2="159" y2="39.5" stroke="black"/>
<line x1="166" y1="42.5" x2="160" y2="42.5" stroke="black"/>
<defs>
<filter id="filter0_d_26_54" x="20" y="2" width="9.97009" height="12.2426" filterUnits="userSpaceOnUse" color-interpolation-filters="sRGB">
<feFlood flood-opacity="0" result="BackgroundImageFix"/>
<feColorMatrix in="SourceAlpha" type="matrix" values="0 0 0 0 0 0 0 0 0 0 0 0 0 0 0 0 0 0 127 0" result="hardAlpha"/>
<feOffset dy="4"/>
<feGaussianBlur stdDeviation="2"/>
<feComposite in2="hardAlpha" operator="out"/>
<feColorMatrix type="matrix" values="0 0 0 0 0 0 0 0 0 0 0 0 0 0 0 0 0 0 0.25 0"/>
<feBlend mode="normal" in2="BackgroundImageFix" result="effect1_dropShadow_26_54"/>
<feBlend mode="normal" in="SourceGraphic" in2="effect1_dropShadow_26_54" result="shape"/>
</filter>
<filter id="filter1_d_26_54" x="26" y="2" width="9.97009" height="12.2426" filterUnits="userSpaceOnUse" color-interpolation-filters="sRGB">
<feFlood flood-opacity="0" result="BackgroundImageFix"/>
<feColorMatrix in="SourceAlpha" type="matrix" values="0 0 0 0 0 0 0 0 0 0 0 0 0 0 0 0 0 0 127 0" result="hardAlpha"/>
<feOffset dy="4"/>
<feGaussianBlur stdDeviation="2"/>
<feComposite in2="hardAlpha" operator="out"/>
<feColorMatrix type="matrix" values="0 0 0 0 0 0 0 0 0 0 0 0 0 0 0 0 0 0 0.25 0"/>
<feBlend mode="normal" in2="BackgroundImageFix" result="effect1_dropShadow_26_54"/>
<feBlend mode="normal" in="SourceGraphic" in2="effect1_dropShadow_26_54" result="shape"/>
</filter>
<filter id="filter2_d_26_54" x="32" y="2" width="9.97009" height="12.2426" filterUnits="userSpaceOnUse" color-interpolation-filters="sRGB">
<feFlood flood-opacity="0" result="BackgroundImageFix"/>
<feColorMatrix in="SourceAlpha" type="matrix" values="0 0 0 0 0 0 0 0 0 0 0 0 0 0 0 0 0 0 127 0" result="hardAlpha"/>
<feOffset dy="4"/>
<feGaussianBlur stdDeviation="2"/>
<feComposite in2="hardAlpha" operator="out"/>
<feColorMatrix type="matrix" values="0 0 0 0 0 0 0 0 0 0 0 0 0 0 0 0 0 0 0.25 0"/>
<feBlend mode="normal" in2="BackgroundImageFix" result="effect1_dropShadow_26_54"/>
<feBlend mode="normal" in="SourceGraphic" in2="effect1_dropShadow_26_54" result="shape"/>
</filter>
<filter id="filter3_d_26_54" x="38" y="2" width="9.97009" height="12.2426" filterUnits="userSpaceOnUse" color-interpolation-filters="sRGB">
<feFlood flood-opacity="0" result="BackgroundImageFix"/>
<feColorMatrix in="SourceAlpha" type="matrix" values="0 0 0 0 0 0 0 0 0 0 0 0 0 0 0 0 0 0 127 0" result="hardAlpha"/>
<feOffset dy="4"/>
<feGaussianBlur stdDeviation="2"/>
<feComposite in2="hardAlpha" operator="out"/>
<feColorMatrix type="matrix" values="0 0 0 0 0 0 0 0 0 0 0 0 0 0 0 0 0 0 0.25 0"/>
<feBlend mode="normal" in2="BackgroundImageFix" result="effect1_dropShadow_26_54"/>
<feBlend mode="normal" in="SourceGraphic" in2="effect1_dropShadow_26_54" result="shape"/>
</filter>
<filter id="filter4_d_26_54" x="44" y="2" width="9.97009" height="12.2426" filterUnits="userSpaceOnUse" color-interpolation-filters="sRGB">
<feFlood flood-opacity="0" result="BackgroundImageFix"/>
<feColorMatrix in="SourceAlpha" type="matrix" values="0 0 0 0 0 0 0 0 0 0 0 0 0 0 0 0 0 0 127 0" result="hardAlpha"/>
<feOffset dy="4"/>
<feGaussianBlur stdDeviation="2"/>
<feComposite in2="hardAlpha" operator="out"/>
<feColorMatrix type="matrix" values="0 0 0 0 0 0 0 0 0 0 0 0 0 0 0 0 0 0 0.25 0"/>
<feBlend mode="normal" in2="BackgroundImageFix" result="effect1_dropShadow_26_54"/>
<feBlend mode="normal" in="SourceGraphic" in2="effect1_dropShadow_26_54" result="shape"/>
</filter>
<filter id="filter5_d_26_54" x="50" y="2" width="9.97009" height="12.2426" filterUnits="userSpaceOnUse" color-interpolation-filters="sRGB">
<feFlood flood-opacity="0" result="BackgroundImageFix"/>
<feColorMatrix in="SourceAlpha" type="matrix" values="0 0 0 0 0 0 0 0 0 0 0 0 0 0 0 0 0 0 127 0" result="hardAlpha"/>
<feOffset dy="4"/>
<feGaussianBlur stdDeviation="2"/>
<feComposite in2="hardAlpha" operator="out"/>
<feColorMatrix type="matrix" values="0 0 0 0 0 0 0 0 0 0 0 0 0 0 0 0 0 0 0.25 0"/>
<feBlend mode="normal" in2="BackgroundImageFix" result="effect1_dropShadow_26_54"/>
<feBlend mode="normal" in="SourceGraphic" in2="effect1_dropShadow_26_54" result="shape"/>
</filter>
<filter id="filter6_d_26_54" x="56" y="2" width="9.97009" height="12.2426" filterUnits="userSpaceOnUse" color-interpolation-filters="sRGB">
<feFlood flood-opacity="0" result="BackgroundImageFix"/>
<feColorMatrix in="SourceAlpha" type="matrix" values="0 0 0 0 0 0 0 0 0 0 0 0 0 0 0 0 0 0 127 0" result="hardAlpha"/>
<feOffset dy="4"/>
<feGaussianBlur stdDeviation="2"/>
<feComposite in2="hardAlpha" operator="out"/>
<feColorMatrix type="matrix" values="0 0 0 0 0 0 0 0 0 0 0 0 0 0 0 0 0 0 0.25 0"/>
<feBlend mode="normal" in2="BackgroundImageFix" result="effect1_dropShadow_26_54"/>
<feBlend mode="normal" in="SourceGraphic" in2="effect1_dropShadow_26_54" result="shape"/>
</filter>
<filter id="filter7_d_26_54" x="62" y="2" width="9.97009" height="12.2426" filterUnits="userSpaceOnUse" color-interpolation-filters="sRGB">
<feFlood flood-opacity="0" result="BackgroundImageFix"/>
<feColorMatrix in="SourceAlpha" type="matrix" values="0 0 0 0 0 0 0 0 0 0 0 0 0 0 0 0 0 0 127 0" result="hardAlpha"/>
<feOffset dy="4"/>
<feGaussianBlur stdDeviation="2"/>
<feComposite in2="hardAlpha" operator="out"/>
<feColorMatrix type="matrix" values="0 0 0 0 0 0 0 0 0 0 0 0 0 0 0 0 0 0 0.25 0"/>
<feBlend mode="normal" in2="BackgroundImageFix" result="effect1_dropShadow_26_54"/>
<feBlend mode="normal" in="SourceGraphic" in2="effect1_dropShadow_26_54" result="shape"/>
</filter>
<filter id="filter8_d_26_54" x="68" y="2" width="9.97009" height="12.2426" filterUnits="userSpaceOnUse" color-interpolation-filters="sRGB">
<feFlood flood-opacity="0" result="BackgroundImageFix"/>
<feColorMatrix in="SourceAlpha" type="matrix" values="0 0 0 0 0 0 0 0 0 0 0 0 0 0 0 0 0 0 127 0" result="hardAlpha"/>
<feOffset dy="4"/>
<feGaussianBlur stdDeviation="2"/>
<feComposite in2="hardAlpha" operator="out"/>
<feColorMatrix type="matrix" values="0 0 0 0 0 0 0 0 0 0 0 0 0 0 0 0 0 0 0.25 0"/>
<feBlend mode="normal" in2="BackgroundImageFix" result="effect1_dropShadow_26_54"/>
<feBlend mode="normal" in="SourceGraphic" in2="effect1_dropShadow_26_54" result="shape"/>
</filter>
<filter id="filter9_d_26_54" x="74" y="2" width="9.97009" height="12.2426" filterUnits="userSpaceOnUse" color-interpolation-filters="sRGB">
<feFlood flood-opacity="0" result="BackgroundImageFix"/>
<feColorMatrix in="SourceAlpha" type="matrix" values="0 0 0 0 0 0 0 0 0 0 0 0 0 0 0 0 0 0 127 0" result="hardAlpha"/>
<feOffset dy="4"/>
<feGaussianBlur stdDeviation="2"/>
<feComposite in2="hardAlpha" operator="out"/>
<feColorMatrix type="matrix" values="0 0 0 0 0 0 0 0 0 0 0 0 0 0 0 0 0 0 0.25 0"/>
<feBlend mode="normal" in2="BackgroundImageFix" result="effect1_dropShadow_26_54"/>
<feBlend mode="normal" in="SourceGraphic" in2="effect1_dropShadow_26_54" result="shape"/>
</filter>
<filter id="filter10_d_26_54" x="80" y="2" width="9.97009" height="12.2426" filterUnits="userSpaceOnUse" color-interpolation-filters="sRGB">
<feFlood flood-opacity="0" result="BackgroundImageFix"/>
<feColorMatrix in="SourceAlpha" type="matrix" values="0 0 0 0 0 0 0 0 0 0 0 0 0 0 0 0 0 0 127 0" result="hardAlpha"/>
<feOffset dy="4"/>
<feGaussianBlur stdDeviation="2"/>
<feComposite in2="hardAlpha" operator="out"/>
<feColorMatrix type="matrix" values="0 0 0 0 0 0 0 0 0 0 0 0 0 0 0 0 0 0 0.25 0"/>
<feBlend mode="normal" in2="BackgroundImageFix" result="effect1_dropShadow_26_54"/>
<feBlend mode="normal" in="SourceGraphic" in2="effect1_dropShadow_26_54" result="shape"/>
</filter>
</defs>
</svg>
