<svg width="160" height="167" viewBox="0 0 160 167" fill="none" xmlns="http://www.w3.org/2000/svg">
<path d="M5.66748 39.5C7.9049 33.1344 8.74072 31 11.6674 30C17.8977 27.8712 22.5858 26.6722 33.1674 24.5C44.1674 8.5 61.1674 0.5 80.6674 0.5C100.167 0.5 117.167 8.5 128.167 24.5C138.749 26.6722 141.437 27.8712 147.667 30C153.898 32.1288 159.973 59 158.667 79C156.893 106.186 155.672 121.306 147.667 146C145.56 152.5 143.152 158.476 138.167 166C137.667 166.755 133.912 166.5 133.667 166C131.216 161 129.667 158 128.667 153C126.368 141.5 125.667 140.5 113.667 139C99.8706 136.385 92.1852 134.977 80.6674 135C67.886 135.005 55.6674 138 47.6675 139C35.6675 140.5 34.9673 141.5 32.6674 153C31.6675 158 30.1191 161 27.6675 166C27.4223 166.5 23.6675 166.755 23.1675 166C18.1831 158.476 14.7744 152 12.6674 145.5C4.66273 120.806 2.44217 106.186 0.667413 79C0.352333 70.4079 0.378773 66.4215 1.66748 56.5" stroke="black" stroke-linecap="round"/>
<path d="M25.1675 166.5C33.1675 140 39.6675 123.5 48.1675 111.5" stroke="black" stroke-linecap="round"/>
<path d="M135.667 166.5C127.667 140 121.167 123.5 112.667 111.5" stroke="black" stroke-linecap="round"/>
<path d="M139.516 73.5C140.761 68.5859 140.668 64.309 140.668 59C140.668 58.4986 140.662 57.9986 140.65 57.5M133.655 87.7661C124.915 104.523 109.278 116.436 90.1675 119.5M37.6675 102.77C46.8043 111.938 58.7974 117.705 72.1675 119.5M23.8444 81.5C22.6625 78.4452 21.7142 75.2709 21.0217 72M25.3241 33C26.5211 30.3955 27.8923 27.8903 29.4225 25.5M130.668 25.1204C134.915 31.6488 137.969 39.0489 139.516 47" stroke="black" stroke-linecap="round"/>
<circle cx="121.167" cy="66" r="6" stroke="black"/>
<circle cx="19.6675" cy="51.5" r="18.5" stroke="black"/>
<circle cx="19.6675" cy="51.5" r="11.5" stroke="black"/>
<circle cx="149.167" cy="66" r="6" stroke="black"/>
<circle cx="135.167" cy="53" r="6" stroke="black"/>
<circle cx="135.167" cy="80" r="6" stroke="black"/>
<path d="M79.8999 113.44C80.4887 112.51 81.8463 112.51 82.4351 113.44L88.7632 123.448C89.3947 124.447 88.6773 125.75 87.4956 125.75H74.8394C73.6577 125.75 72.9402 124.447 73.5718 123.448L79.8999 113.44Z" stroke="black"/>
<path d="M109.167 7L109.667 59C108.361 70.247 98.6085 81.6673 86.6347 84.9715C85.1192 85.3897 83.5411 85.5 81.9689 85.5H78.6675C65.4366 84.0474 53.672 72.5664 52.6675 59.5V7" stroke="black"/>
<path d="M27.314 74.6649C29.3954 74.2823 30.9684 74.2622 33.0454 74.6542C33.6952 74.7768 34.1675 75.3681 34.1675 76.0663V82.4999C34.1675 83.8806 35.2868 84.9998 36.6675 84.9999H43.2661C43.907 85 44.4591 85.3968 44.6216 85.9696C45.2289 88.1108 45.1769 89.7162 44.5923 91.9589C44.4325 92.5711 43.859 92.9997 43.1958 92.9999H36.6675C35.2868 92.9999 34.1675 94.1192 34.1675 95.4999V101.84C34.1675 102.57 33.6507 103.178 32.9634 103.267C31.0561 103.516 29.503 103.484 27.438 103.236C26.7144 103.149 26.1675 102.522 26.1675 101.774V95.4999C26.1674 94.1192 25.0482 92.9999 23.6675 92.9999H17.3062C16.5845 92.9999 15.9777 92.494 15.8745 91.8124C15.5686 89.788 15.5798 88.229 15.8813 86.202C15.9842 85.5126 16.5944 85 17.3198 84.9999H23.6675C25.0482 84.9999 26.1675 83.8806 26.1675 82.4999V76.0897C26.1676 75.3846 26.6509 74.7868 27.314 74.6649Z" stroke="black"/>
<path d="M75.6675 119.5H72.6675C71.6675 119.5 70.2047 124.854 68.6675 130" stroke="black" stroke-linecap="round"/>
<path d="M86.6675 119.5H89.6675C90.6675 119.5 92.1302 124.854 93.6675 130" stroke="black" stroke-linecap="round"/>
<rect x="64.1675" y="33" width="34" height="30" rx="1.5" stroke="black"/>
<path d="M80.3198 25C86.1434 25.0024 92.2525 26.2253 100.129 28.7031C100.746 28.8972 101.167 29.4738 101.167 30.124V63.0254C101.167 63.6835 100.738 64.2637 100.112 64.4512C92.5863 66.7047 86.6557 67.8248 80.8433 67.8281C75.0326 67.8314 69.3093 66.7182 62.1978 64.4678C61.5846 64.2737 61.1675 63.7008 61.1675 63.0518V30.0566C61.1675 29.4299 61.5569 28.8713 62.1401 28.6611C68.9332 26.2137 74.5008 24.9976 80.3198 25Z" stroke="black"/>
<path d="M68.1675 18.5C68.2386 20.2636 68.6675 21.5 69.6675 21.5H93.6675C94.6675 21.5 95.0964 20.2636 95.1675 18.5C95.0674 16.7333 94.6675 15.5 93.6675 15.5C89.6675 15.5 89.6675 15.5 89.6675 11C89.6675 7 86.6675 4 81.6675 4C76.6675 4 73.6675 7 73.6675 11C73.6675 15.5 73.6675 15.5 69.6675 15.5C68.6675 15.5 68.2676 16.7333 68.1675 18.5Z" stroke="black" stroke-linecap="round"/>
</svg>
