<svg width="93" height="156" viewBox="0 0 93 156" fill="none" xmlns="http://www.w3.org/2000/svg">
<path d="M3.5 0.5H89C89.88 0.5 90.7673 0.831954 91.4297 1.38379C92.0895 1.93361 92.5 2.67679 92.5 3.5V145C92.5 147.153 91.9367 148.824 90.5859 150.16C89.2139 151.518 86.9762 152.583 83.5117 153.388C76.5778 154.997 65.0129 155.5 46.5 155.5C29.245 155.5 17.6742 154.873 10.4248 153.2C6.80004 152.364 4.31426 151.278 2.74023 149.926C1.19163 148.595 0.5 146.986 0.5 145V3.5C0.5 2.39985 0.932565 1.66668 1.50391 1.19922C2.09085 0.718992 2.85003 0.5 3.5 0.5Z" stroke="black"/>
<circle cx="62" cy="105" r="5.5" stroke="black"/>
<circle cx="79" cy="100" r="5.5" stroke="black"/>
<path d="M15.04 93V97.7347C15.04 98.287 14.5923 98.7347 14.04 98.7347H9C8.44772 98.7347 8 99.1824 8 99.7347V105.816C8 106.369 8.44772 106.816 9 106.816H14.04C14.5923 106.816 15.04 107.264 15.04 107.816V113C15.04 113.552 15.4877 114 16.04 114H21.96C22.5123 114 22.96 113.552 22.96 113V107.816C22.96 107.264 23.4077 106.816 23.96 106.816H29C29.5523 106.816 30 106.369 30 105.816V99.7347C30 99.1824 29.5523 98.7347 29 98.7347H23.96C23.4077 98.7347 22.96 98.287 22.96 97.7347V93C22.96 92.4477 22.5123 92 21.96 92H16.04C15.4877 92 15.04 92.4477 15.04 93Z" stroke="black"/>
<rect x="0.516891" y="0.499715" width="8.83797" height="3.56711" rx="1.78355" transform="matrix(1 0 0.0337829 0.999429 47.9831 127)" stroke="black"/>
<rect x="0.516891" y="0.499715" width="8.83797" height="3.56711" rx="1.78355" transform="matrix(1 0 0.0337829 0.999429 33.9831 127)" stroke="black"/>
<path d="M9 6.5H84C85.3807 6.5 86.5 7.61929 86.5 9V72.5C86.5 72.7316 86.319 73.1946 85.3584 73.7754C84.4174 74.3443 82.8368 74.9544 80.3291 75.5117C75.3196 76.6249 66.7371 77.5 52.5 77.5H41C28.7428 77.5 20.0339 77.2491 14.3936 76.3193C11.569 75.8537 9.57157 75.2263 8.29102 74.4141C7.04091 73.6211 6.5 72.6736 6.5 71.5V9C6.5 7.61929 7.61929 6.5 9 6.5Z" stroke="black"/>
<rect x="20.5" y="15.5" width="52" height="45" rx="0.5" stroke="black"/>
<path d="M9.18262 28.5C9.5806 28.5 9.86621 28.8039 9.86621 29.1328C9.86595 29.4615 9.58042 29.7646 9.18262 29.7646C8.78498 29.7645 8.50027 29.4614 8.5 29.1328C8.5 28.804 8.78479 28.5002 9.18262 28.5Z" stroke="black"/>
<circle cx="68" cy="133" r="1" fill="black"/>
<circle cx="69" cy="139" r="1" fill="black"/>
<circle cx="70" cy="145" r="1" fill="black"/>
<circle cx="70" cy="130" r="1" fill="black"/>
<circle cx="71" cy="136" r="1" fill="black"/>
<circle cx="72" cy="142" r="1" fill="black"/>
<circle cx="73" cy="148" r="1" fill="black"/>
<circle cx="73" cy="132" r="1" fill="black"/>
<circle cx="74" cy="138" r="1" fill="black"/>
<circle cx="75" cy="144" r="1" fill="black"/>
<circle cx="76" cy="129" r="1" fill="black"/>
<circle cx="77" cy="135" r="1" fill="black"/>
<circle cx="78" cy="141" r="1" fill="black"/>
<circle cx="79" cy="147" r="1" fill="black"/>
<circle cx="82" cy="128" r="1" fill="black"/>
<circle cx="83" cy="134" r="1" fill="black"/>
<circle cx="84" cy="140" r="1" fill="black"/>
<circle cx="85" cy="146" r="1" fill="black"/>
<circle cx="79" cy="131" r="1" fill="black"/>
<circle cx="80" cy="137" r="1" fill="black"/>
<circle cx="81" cy="143" r="1" fill="black"/>
<circle cx="85" cy="130" r="1" fill="black"/>
<circle cx="86" cy="136" r="1" fill="black"/>
<circle cx="87" cy="142" r="1" fill="black"/>
</svg>
