<svg width="203" height="114" viewBox="0 0 203 114" fill="none" xmlns="http://www.w3.org/2000/svg">
<path d="M101.903 0.5H55.4025C50.9025 0.5 49.9025 1 47.4025 2C44.9025 3.5 38.9025 7 33.9025 8.5C26.9025 10.6 18.9025 12.5 16.4025 13C13.9511 13.4903 12.6441 13.4614 10.9025 14.5C9.21461 15.8927 8.66073 16.7679 8.40252 18.5C6.90252 30.5 5.81641 37.4299 3.90252 51.5C3.15444 57 1.90247 78 2.90252 83C3.80257 87.5 4.40247 89 6.40252 91.5C9.40247 94.5 11.3539 96.0536 14.9025 97.5C22.2307 99.0289 28.9025 100.5 33.9025 102C38.4025 103 43.9025 105.5 47.4025 107C50.9025 110 77.9025 113.5 101.903 113.5M100.903 0.5H147.403C151.903 0.5 152.903 1 155.403 2C157.903 3.5 163.903 7 168.903 8.5C175.903 10.6 183.903 12.5 186.403 13C188.854 13.4903 190.161 13.4614 191.903 14.5C193.59 15.8927 194.144 16.7679 194.403 18.5C195.903 30.5 196.989 37.4299 198.903 51.5C199.651 57 200.903 78 199.903 83C199.002 87.5 198.403 89 196.403 91.5C193.403 94.5 191.451 96.0536 187.903 97.5C180.574 99.0289 173.903 100.5 168.903 102C164.403 103 158.903 105.5 155.403 107C151.903 110 124.903 113.5 100.903 113.5" stroke="black"/>
<path d="M13.4025 97C12.4025 97.5 10.8825 97.74 10.4025 97.5C6.40245 95.5 0.902454 85.5 0.902519 84C-0.0974598 70 0.902466 62 2.40252 48.5C3.01365 43 3.90247 35 5.40252 23.5C5.44396 23.1823 7.40241 24 7.40247 23.5L8.40247 17.5C7.81601 17.3466 6.93334 17.8309 6.90252 17.5C6.66155 14.913 8.07062 12.7711 10.4025 10.5C12.1552 8.79307 13.9025 7.5 16.4025 7C18.3275 6.61502 34.9025 4.5 44.9025 3.5" stroke="black"/>
<path d="M189.403 97C190.403 97.5 191.923 97.74 192.403 97.5C196.403 95.5 201.903 85.5 201.903 84C202.903 70 201.903 62 200.403 48.5C199.791 43 198.903 35 197.403 23.5C197.361 23.1823 195.403 24 195.403 23.5L194.403 17.5C194.989 17.3466 195.872 17.8309 195.903 17.5C196.144 14.913 194.734 12.7711 192.403 10.5C190.65 8.79307 188.903 7.5 186.403 7C184.478 6.61502 167.903 4.5 157.903 3.5" stroke="black"/>
<rect x="57.4025" y="21" width="87" height="59" rx="0.5" stroke="black"/>
<path d="M101.402 12C83.9025 12 73.9548 12.7151 56.9025 14.5C54.7576 14.7245 52.2149 18.5 51.9025 21.5C49.5143 44.4315 48.9025 59.5 48.4025 84C48.4024 91 52.4025 95 56.9025 96C62.9025 98 86.9025 101.5 101.402 101.5M100.902 12C118.402 12 126.85 12.7151 143.902 14.5C146.902 14.814 150.59 17.5 150.902 20.5C153.291 43.4315 153.653 58.4526 154.402 82.5C154.402 89.5 151.902 93 146.902 95C135.016 99.7544 115.402 101.5 100.902 101.5" stroke="black"/>
<circle cx="166.402" cy="50" r="6" stroke="black"/>
<circle cx="41.4025" cy="75" r="3" stroke="black"/>
<circle cx="41.4025" cy="86" r="3" stroke="black"/>
<circle cx="166.402" cy="19" r="2" fill="black" stroke="black"/>
<circle cx="184.402" cy="43" r="6" stroke="black"/>
<rect x="159.349" y="72.4101" width="22.3688" height="0.75" rx="0.375" transform="rotate(-15 159.349 72.4101)" stroke="black" stroke-width="0.75"/>
<rect x="159.349" y="76.7487" width="22.3688" height="0.75" rx="0.375" transform="rotate(-15 159.349 76.7487)" stroke="black" stroke-width="0.75"/>
<rect x="159.349" y="81.0874" width="22.3688" height="0.75" rx="0.375" transform="rotate(-15 159.349 81.0874)" stroke="black" stroke-width="0.75"/>
<rect x="159.349" y="85.4261" width="22.3688" height="0.75" rx="0.375" transform="rotate(-15 159.349 85.4261)" stroke="black" stroke-width="0.75"/>
<rect x="159.349" y="89.7648" width="22.3688" height="0.75" rx="0.375" transform="rotate(-15 159.349 89.7648)" stroke="black" stroke-width="0.75"/>
<path d="M24.4025 34H31.1525C31.4286 34 31.6525 34.2239 31.6525 34.5V41.25C31.6525 42.0784 32.324 42.75 33.1525 42.75H39.9025C40.1786 42.75 40.4025 42.9739 40.4025 43.25V50C40.4025 50.2761 40.1786 50.5 39.9025 50.5H33.1525C32.324 50.5 31.6525 51.1716 31.6525 52V58.5C31.6525 58.7761 31.4286 59 31.1525 59H24.4025C24.1263 59 23.9025 58.7761 23.9025 58.5V52C23.9025 51.1716 23.2309 50.5 22.4025 50.5H15.9025C15.6263 50.5 15.4025 50.2761 15.4025 50V43.25C15.4025 42.9739 15.6263 42.75 15.9025 42.75H22.4025C23.2309 42.75 23.9025 42.0784 23.9025 41.25V34.5C23.9025 34.2239 24.1263 34 24.4025 34Z" stroke="black"/>
</svg>
