<svg width="164" height="98" viewBox="0 0 164 98" fill="none" xmlns="http://www.w3.org/2000/svg">
<path d="M31.9926 11C45.9928 4.41175 68.4923 0.5 81.4925 0.5C94.4927 0.5 117.492 4.41175 131.493 11C145.493 17.5883 157.993 24 161.493 38C164.842 54.695 162.573 63.1901 154.493 77.5C151.387 83 139.602 97.6598 129.493 97C122.993 96.5757 119.993 94.2 116.993 88.5C115.421 85.5136 113.846 79.9899 107.993 76C102.674 72.3747 94.4927 69 81.4927 69C68.4927 69 60.811 72.3747 55.4924 76C49.6391 79.9899 48.0642 85.5136 46.4924 88.5C43.4924 94.2 40.4924 96.5757 33.9924 97C23.8832 97.6598 12.0983 83 8.99262 77.5C0.91235 63.1901 -1.35715 54.695 1.99262 38C5.49243 24 17.9924 17.5883 31.9926 11Z" stroke="black"/>
<circle cx="112.492" cy="53.5" r="7.5" stroke="black"/>
<circle cx="37.4924" cy="45.5" r="14.5" stroke="black"/>
<circle cx="37.4924" cy="45.5" r="20.5" stroke="black"/>
<circle cx="37.4924" cy="45.5" r="26.5" stroke="black"/>
<circle cx="129.492" cy="44.5" r="7.5" stroke="black"/>
<circle cx="146.492" cy="35.5" r="7.5" stroke="black"/>
<path d="M103.663 43.1406C107.819 37.7777 113.95 33.4538 118.725 30.942C122.986 28.701 129.235 26.168 135.562 24.9673C141.909 23.763 148.222 23.9203 152.715 26.9155C154.583 28.1608 156.275 30.785 156.942 33.7951C157.606 36.7914 157.234 40.0815 155.106 42.6832C152.911 45.366 148.946 48.2824 144.873 50.8822C140.815 53.4732 136.704 55.7159 134.252 57.0618C130.315 59.2232 123.303 63.6205 116.48 65.7982C113.071 66.8862 109.773 67.3963 106.973 66.8318C104.207 66.2742 101.888 64.6625 100.397 61.3974C97.3878 54.8089 99.5121 48.4982 103.663 43.1406Z" stroke="black"/>
<rect x="110.175" y="24.183" width="15.1064" height="3.10289" rx="1.55144" transform="rotate(-30 110.175 24.183)" stroke="black"/>
<path d="M35.4924 32H39.4924C40.3209 32 40.9924 32.6716 40.9924 33.5V39.5C40.9924 40.8807 42.1117 42 43.4924 42H49.4924C50.3209 42 50.9924 42.6716 50.9924 43.5V47.5C50.9924 48.3284 50.3209 49 49.4924 49H43.4924C42.1117 49 40.9924 50.1193 40.9924 51.5V57.5C40.9924 58.3284 40.3209 59 39.4924 59H35.4924C34.664 59 33.9924 58.3284 33.9924 57.5V51.5C33.9924 50.1193 32.8731 49 31.4924 49H25.4924C24.664 49 23.9924 48.3284 23.9924 47.5V43.5C23.9924 42.6716 24.664 42 25.4924 42H31.4924C32.8731 42 33.9924 40.8807 33.9924 39.5V33.5C33.9924 32.6716 34.664 32 35.4924 32Z" stroke="black"/>
<path d="M37.4924 71.5L36.6264 67L38.3585 67L37.4924 71.5Z" fill="black"/>
<path d="M63.4924 45.5L58.9924 46.366L58.9924 44.634L63.4924 45.5Z" fill="black"/>
<path d="M11.4924 45.5L15.9924 44.634L15.9924 46.366L11.4924 45.5Z" fill="black"/>
<path d="M37.4924 19.5L36.6264 24L38.3585 24L37.4924 19.5Z" fill="black"/>
</svg>
