<svg width="163" height="101" viewBox="0 0 163 101" fill="none" xmlns="http://www.w3.org/2000/svg">
<path d="M18.6961 14.9402C18.6961 14.4402 19.8014 7.2297 20.1961 6.44025C20.6961 5.44023 22.3895 3.94023 24.1961 3.44025C28.4088 2.27444 36.1961 1.94027 42.6961 3.44025C43.3983 3.60229 44.9703 6.08514 45.1961 7.44025C45.6961 10.4403 45.6961 12.4403 46.1961 15.4402H81.6961L116.196 15.4402C116.696 12.4403 116.696 10.4403 117.196 7.44025C117.422 6.08514 118.994 3.60229 119.696 3.44025C126.196 1.94027 133.984 2.27444 138.196 3.44025C140.003 3.94023 141.696 5.44023 142.196 6.44025C142.591 7.2297 143.696 14.4402 143.696 14.9402M38.696 62.4402C19.196 67.9402 5.69614 52.8519 5.69614 37.9402C5.69614 23.0286 16.7845 11.9402 31.6961 11.9402C46.6078 11.9402 58.6961 23.0286 58.6961 37.9402C58.6961 40.5427 58.3832 42.5864 57.696 44.9675M43.196 74.9402C38.9502 83.9063 33.1961 91.4402 29.6961 95.4402C26.8145 98.1993 24.9297 99.144 21.1961 99.9402C17.8475 100.359 14.696 100.107 12.6961 99.4402C6.69604 97.4402 1.39602 89.9402 0.696143 86.4402C0.196233 83.9402 0.695958 79.9402 1.69614 71.4402C3.28467 57.9402 4.19595 50.4402 5.69604 36.4402M23.6961 3.44025C22.6962 -0.0597587 44.1962 -1.05975 43.1961 3.94026M73.8404 68.4402H88.5519M74.6688 63.9402H87.7234M123.696 62.9402C143.196 68.4402 156.696 52.8519 156.696 37.9402C156.696 23.0286 145.608 11.9402 130.696 11.9402C115.784 11.9402 103.696 23.0286 103.696 37.9402C103.696 40.5427 104.009 42.5591 104.696 44.9402M123.696 62.9402C123.696 72.8814 115.637 80.9402 105.696 80.9402C95.755 80.9402 87.6961 72.8814 87.6961 62.9402C87.6961 52.9991 95.755 44.9402 105.696 44.9402C115.637 44.9402 123.696 52.9991 123.696 62.9402ZM119.196 74.9402C123.442 83.9063 129.196 91.4402 132.696 95.4402C135.578 98.1993 137.463 99.144 141.196 99.9402C144.545 100.359 147.696 100.107 149.696 99.4402C155.696 97.4402 160.996 89.9402 161.696 86.4402C162.196 83.9402 161.696 79.9402 160.696 71.4402C159.108 57.9402 158.196 50.4402 156.696 36.4402M138.696 3.44025C139.696 -0.0597577 118.196 -1.05975 119.196 3.94026M74.6961 62.9402C74.6961 72.8814 66.6373 80.9402 56.6961 80.9402C46.755 80.9402 38.6961 72.8814 38.6961 62.9402C38.6961 52.9991 46.755 44.9402 56.6961 44.9402C66.6373 44.9402 74.6961 52.9991 74.6961 62.9402ZM68.6961 62.9402C68.6961 69.5677 63.3236 74.9402 56.6961 74.9402C50.0687 74.9402 44.6961 69.5677 44.6961 62.9402C44.6961 56.3128 50.0687 50.9402 56.6961 50.9402C63.3236 50.9402 68.6961 56.3128 68.6961 62.9402ZM93.6961 62.9402C93.6961 69.5677 99.0687 74.9402 105.696 74.9402C112.324 74.9402 117.696 69.5677 117.696 62.9402C117.696 56.3128 112.324 50.9402 105.696 50.9402C99.0687 50.9402 93.6961 56.3128 93.6961 62.9402Z" stroke="black"/>
<path d="M31.0242 41.4402H31.3679C31.7656 41.4403 32.1472 41.5985 32.4285 41.8797L35.7566 45.2078C36.0378 45.4891 36.196 45.8707 36.196 46.2684V49.9402C36.196 50.7687 35.5245 51.4402 34.696 51.4402H27.696C26.8676 51.4402 26.196 50.7687 26.196 49.9402V46.2684C26.1961 45.8707 26.3543 45.4891 26.6355 45.2078L29.9636 41.8797C30.2449 41.5985 30.6265 41.4403 31.0242 41.4402Z" stroke="black"/>
<path d="M31.0242 34.4402H31.3679C31.7656 34.4402 32.1472 34.282 32.4285 34.0008L35.7566 30.6727C36.0378 30.3914 36.196 30.0098 36.196 29.6121V25.9402C36.196 25.1118 35.5245 24.4402 34.696 24.4402H27.696C26.8676 24.4402 26.196 25.1118 26.196 25.9402V29.6121C26.1961 30.0098 26.3543 30.3914 26.6355 30.6727L29.9636 34.0008C30.2449 34.282 30.6265 34.4402 31.0242 34.4402Z" stroke="black"/>
<path d="M28.196 38.6121L28.196 38.2684C28.196 37.8707 28.0378 37.4891 27.7566 37.2078L24.4285 33.8797C24.1472 33.5985 23.7656 33.4403 23.3679 33.4402L19.696 33.4402C18.8676 33.4402 18.196 34.1118 18.196 34.9402L18.196 41.9402C18.196 42.7687 18.8676 43.4402 19.696 43.4402L23.3679 43.4402C23.7656 43.4402 24.1472 43.282 24.4285 43.0008L27.7566 39.6727C28.0378 39.3914 28.196 39.0098 28.196 38.6121Z" stroke="black"/>
<path d="M34.196 38.6121L34.196 38.2684C34.1961 37.8707 34.3543 37.4891 34.6355 37.2078L37.9636 33.8797C38.2449 33.5985 38.6265 33.4403 39.0242 33.4402L42.696 33.4402C43.5245 33.4402 44.196 34.1118 44.196 34.9402L44.196 41.9402C44.196 42.7687 43.5245 43.4402 42.696 43.4402L39.0242 43.4402C38.6265 43.4402 38.2449 43.282 37.9636 43.0008L34.6355 39.6727C34.3543 39.3914 34.1961 39.0098 34.196 38.6121Z" stroke="black"/>
<circle cx="115.196" cy="37.4402" r="6" stroke="black"/>
<circle cx="144.196" cy="37.4402" r="6" stroke="black"/>
<circle cx="144.196" cy="37.4402" r="4" stroke="black"/>
<circle cx="130.196" cy="49.4402" r="6" stroke="black"/>
<circle cx="130.196" cy="24.4402" r="6" stroke="black"/>
<rect x="112.196" y="34.4402" width="6" height="6" stroke="black"/>
<path d="M133.227 26.1902H127.165L130.196 20.9393L133.227 26.1902Z" stroke="black"/>
<line x1="127.342" y1="52.5867" x2="133.342" y2="46.5867" stroke="black"/>
<line y1="-0.5" x2="8.48528" y2="-0.5" transform="matrix(-0.707107 -0.707107 -0.707107 0.707107 132.696 52.9402)" stroke="black"/>
<rect x="62.196" y="35.4402" width="8" height="5" rx="1.5" stroke="black"/>
<rect x="77.196" y="50.4402" width="8" height="5" rx="1.5" stroke="black"/>
<path d="M92.8376 34.8006L99.8376 36.8738C100.05 36.9367 100.196 37.132 100.196 37.3533V37.9109C100.196 38.12 100.066 38.307 99.8699 38.3797L92.8699 40.9725C92.5434 41.0934 92.1962 40.8518 92.196 40.5037V35.2791C92.1963 34.9452 92.5174 34.7059 92.8376 34.8006Z" stroke="black"/>
</svg>
