<svg width="165" height="104" viewBox="0 0 165 104" fill="none" xmlns="http://www.w3.org/2000/svg">
<path d="M24.6326 3.12501C28.8452 1.9592 40.1326 1.625 44.1326 3.12501C45.1326 3.50001 46.6326 5.625 47.1328 8.06524C47.7435 11.0447 47.6328 13.0653 48.1328 16.0652H83.6328H116.654C117.154 13.0653 118.132 8.68474 119.133 6.12499C119.633 4.8454 120.931 4.22727 121.633 4.06524C128.133 2.56525 135.92 2.89943 140.133 4.06524C141.939 4.56522 143.633 6.06522 144.133 7.06524C144.527 7.85469 145.633 15.0652 145.633 15.5652M24.6326 3.12501C22.8259 3.62499 22.1326 4.62497 21.6326 5.62499C21.2378 6.41444 19.6326 15.125 19.6326 16.0652M24.6326 3.12501C23.6326 -0.375001 43.6326 -0.375 43.1326 3.12493M7.63266 37.0652C6.13257 51.0652 3.7211 58.5652 2.13257 72.0652C1.13238 80.5652 0.132837 85.125 0.632747 87.625C1.33262 91.125 6.13247 99.625 12.1326 101.625C14.1325 102.292 18.7841 102.044 22.1328 101.625C25.8663 100.829 28.2509 98.8243 31.1326 96.0652C34.6326 92.0652 37.7111 84.125 43.6326 75.125C53.6326 85.625 69.1326 81.625 74.6326 69.0652H82.5605H90.1326C95.1326 82.625 113.133 85.125 121.133 75.125C125.378 84.0911 130.633 93.625 134.133 97.625C137.014 100.384 139.899 101.829 143.633 102.625C146.981 103.044 150.633 102.292 152.633 101.625C158.633 99.625 162.933 90.5652 163.633 87.0652C164.133 84.5652 163.633 80.5652 162.633 72.0652C161.044 58.5652 159.599 51.125 158.099 37.125M73.6853 64.5652L91.1326 64.625M91.1326 64.625C90.1326 50.9368 98.6326 44.625 107.633 44.125C107.032 42.2256 105.633 38.8203 105.633 36.625C105.633 21.7133 116.721 12.125 131.633 12.125C146.544 12.125 158.133 23.6535 158.133 38.5652C158.133 53.2207 143.593 66.8888 124.633 62.125C124.133 72.625 115.082 79.3221 106.633 78.394C99.6326 77.625 92.1326 71.625 91.1326 64.625ZM140.633 4.06524C141.633 0.565229 120.133 -0.434767 121.133 4.56525M71.6326 69.625C64.1326 82.125 42.6326 81.125 40.6326 61.125C21.9688 65.554 7.63276 53.0912 7.63276 38.5652C7.63276 23.6535 18.7211 12.5652 33.6328 12.5652C48.5444 12.5652 59.6326 22.1535 59.6326 37.0652C59.6326 39.1088 58.0482 42.3279 57.6326 44.125C69.6326 43.125 78.6951 57.8541 71.6326 69.625Z" stroke="black"/>
<path d="M32.9607 40.625H33.3044C33.7022 40.6251 34.0838 40.7832 34.365 41.0645L37.6931 44.3926C37.9743 44.6738 38.1325 45.0554 38.1326 45.4531V49.125C38.1326 49.9534 37.461 50.625 36.6326 50.625H29.6326C28.8041 50.625 28.1326 49.9534 28.1326 49.125V45.4531C28.1326 45.0554 28.2908 44.6738 28.572 44.3926L31.9001 41.0645C32.1814 40.7832 32.563 40.6251 32.9607 40.625Z" stroke="black"/>
<path d="M32.9607 33.625H33.3044C33.7022 33.6249 34.0838 33.4668 34.365 33.1855L37.6931 29.8574C37.9743 29.5762 38.1325 29.1946 38.1326 28.7969V25.125C38.1326 24.2966 37.461 23.625 36.6326 23.625H29.6326C28.8041 23.625 28.1326 24.2966 28.1326 25.125V28.7969C28.1326 29.1946 28.2908 29.5762 28.572 29.8574L31.9001 33.1855C32.1814 33.4668 32.563 33.6249 32.9607 33.625Z" stroke="black"/>
<path d="M30.1326 37.7969L30.1326 37.4531C30.1325 37.0554 29.9743 36.6738 29.6931 36.3926L26.365 33.0645C26.0838 32.7832 25.7022 32.6251 25.3044 32.625L21.6326 32.625C20.8041 32.625 20.1326 33.2966 20.1326 34.125L20.1326 41.125C20.1326 41.9534 20.8041 42.625 21.6326 42.625L25.3044 42.625C25.7022 42.6249 26.0838 42.4668 26.365 42.1855L29.6931 38.8574C29.9743 38.5762 30.1325 38.1946 30.1326 37.7969Z" stroke="black"/>
<path d="M36.1326 37.7969L36.1326 37.4531C36.1326 37.0554 36.2908 36.6738 36.572 36.3926L39.9001 33.0645C40.1814 32.7832 40.563 32.6251 40.9607 32.625L44.6326 32.625C45.461 32.625 46.1326 33.2966 46.1326 34.125L46.1326 41.125C46.1326 41.9534 45.461 42.625 44.6326 42.625L40.9607 42.625C40.563 42.6249 40.1814 42.4668 39.9001 42.1855L36.572 38.8574C36.2908 38.5762 36.1326 38.1946 36.1326 37.7969Z" stroke="black"/>
<circle cx="117.133" cy="38.0652" r="6" stroke="black"/>
<circle cx="146.133" cy="38.0652" r="6" stroke="black"/>
<circle cx="146.133" cy="38.0652" r="4" stroke="black"/>
<circle cx="132.133" cy="50.0652" r="6" stroke="black"/>
<circle cx="132.133" cy="25.0652" r="6" stroke="black"/>
<rect x="114.133" y="35.0652" width="6" height="6" stroke="black"/>
<path d="M135.164 26.8152H129.101L132.133 21.5642L135.164 26.8152Z" stroke="black"/>
<line x1="129.279" y1="53.2116" x2="135.279" y2="47.2116" stroke="black"/>
<line y1="-0.5" x2="8.48528" y2="-0.5" transform="matrix(-0.707107 -0.707107 -0.707107 0.707107 134.633 53.5652)" stroke="black"/>
<circle cx="108.133" cy="60.625" r="12" stroke="black"/>
<circle cx="57.1326" cy="60.625" r="12" stroke="black"/>
<circle cx="83.1326" cy="47.625" r="5" stroke="black"/>
<rect x="64.1326" y="34.625" width="8" height="5" rx="1.5" stroke="black"/>
<path d="M94.7576 34.9336L101.758 36.748C101.978 36.8052 102.133 37.0046 102.133 37.2324V37.4814C102.132 37.6981 101.993 37.8902 101.787 37.957L94.7869 40.2256C94.464 40.3302 94.1327 40.0894 94.1326 39.75V35.417C94.1328 35.0902 94.4412 34.8518 94.7576 34.9336Z" stroke="black"/>
</svg>
