<svg width="165" height="104" viewBox="0 0 165 104" fill="none" xmlns="http://www.w3.org/2000/svg">
<path d="M35.0906 88.2669L43.0906 67.2669C43.5906 66.2669 45.0906 65.7669 45.5906 66.2669C51.5906 71.2669 63.5906 70.7669 68.0906 65.2669H82.5906L96.5906 65.2669C101.091 70.7669 113.091 71.2669 119.091 66.2669C119.591 65.7669 121.091 66.2669 121.591 67.2669L129.591 88.2669M35.0906 88.2669C29.2964 99.4578 24.5906 102.767 15.0906 102.767C8.59061 102.767 1.09071 96.7668 0.590714 79.2668M35.0906 88.2669C30.5907 96.2668 3.59071 93.2668 0.590714 79.2668M0.590714 79.2668C-0.409193 64.2668 7.09061 40.2669 11.5906 22.2669C14.0907 12.2665 19.0906 8.76686 19.0906 7.76686C19.6562 5.99659 20.2561 5.19207 22.0907 4.26686C29.969 3.43503 34.3611 3.46008 42.0906 4.26686C43.5907 4.26686 45.0907 4.76686 46.0906 5.76686C47.0907 6.26685 54.0907 6.26685 55.0906 5.76686C55.7402 5.14742 56.0907 5.26685 57.0907 5.26685H82.5907L107.59 5.26686C108.59 5.26686 108.941 5.14743 109.591 5.76687C110.59 6.26686 117.59 6.26686 118.591 5.76687C119.59 4.76687 121.09 4.26687 122.591 4.26687C130.32 3.46009 134.712 3.43504 142.591 4.26687C144.425 5.19209 145.025 5.9966 145.591 7.76687C145.591 8.76687 151.09 12.2665 153.591 22.2668C158.091 40.2668 165.09 64.2669 164.09 79.2669M129.591 88.2669C135.385 99.4578 140.091 102.767 149.591 102.767C156.091 102.767 163.59 96.7669 164.09 79.2669M129.591 88.2669C134.09 96.2669 161.09 93.2669 164.09 79.2669" stroke="black"/>
<path d="M57.0906 5.26685H108.091C108.919 5.26685 109.591 5.93842 109.591 6.76685V31.7668C109.591 34.2521 107.576 36.2668 105.091 36.2668H60.0906C57.6053 36.2668 55.5906 34.2521 55.5906 31.7668V6.76685C55.5906 5.93842 56.2621 5.26685 57.0906 5.26685Z" stroke="black"/>
<path d="M22.0905 4.26684C22.0904 3.76684 21.8629 2.89338 22.0904 2.76687C26.5904 0.266842 33.4125 -0.532836 41.5906 2.26679C42.0907 2.438 42.0905 3.26683 42.0905 4.26684" stroke="black"/>
<path d="M143.09 4.26684C143.091 3.76684 143.318 2.89338 143.091 2.76687C138.591 0.266842 131.768 -0.532836 123.59 2.26679C123.09 2.438 123.09 3.26683 123.09 4.26684" stroke="black"/>
<circle cx="122.091" cy="30.7668" r="5.5" stroke="black"/>
<circle cx="146.091" cy="30.7668" r="5.5" stroke="black"/>
<circle cx="146.091" cy="30.7668" r="3.5" stroke="black"/>
<circle cx="134.091" cy="42.7668" r="5.5" stroke="black"/>
<circle cx="134.091" cy="18.7668" r="5.5" stroke="black"/>
<rect x="119.591" y="28.2668" width="5" height="5" stroke="black"/>
<path d="M136.689 20.2668H131.492L134.091 15.7659L136.689 20.2668Z" stroke="black"/>
<line x1="131.737" y1="45.4133" x2="136.737" y2="40.4133" stroke="black"/>
<line x1="136.737" y1="45.1204" x2="131.737" y2="40.1204" stroke="black"/>
<circle cx="56.5906" cy="53.2668" r="9" stroke="black"/>
<circle cx="108.591" cy="53.2668" r="9" stroke="black"/>
<circle cx="56.5906" cy="53.2668" r="14" stroke="black"/>
<circle cx="108.591" cy="53.2668" r="14" stroke="black"/>
<circle cx="82.5906" cy="54.2668" r="4" stroke="black"/>
<circle cx="76.0906" cy="40.7668" r="1" fill="black"/>
<circle cx="80.0906" cy="40.7668" r="1" fill="black"/>
<circle cx="84.0906" cy="40.7668" r="1" fill="black"/>
<circle cx="78.0906" cy="42.7668" r="1" fill="black"/>
<circle cx="82.0906" cy="42.7668" r="1" fill="black"/>
<circle cx="86.0906" cy="42.7668" r="1" fill="black"/>
<circle cx="80.0906" cy="44.7668" r="1" fill="black"/>
<circle cx="84.0906" cy="44.7668" r="1" fill="black"/>
<circle cx="88.0906" cy="40.7668" r="1" fill="black"/>
<circle cx="134.091" cy="30.7668" r="19.5" stroke="black"/>
<rect x="46.5906" y="10.2668" width="5" height="8" rx="2.5" stroke="black"/>
<rect x="113.591" y="10.2668" width="5" height="8" rx="2.5" stroke="black"/>
<path d="M42.0906 35.7668C45.1043 35.7668 44.9368 34.2061 45.0906 30.7668V29.2668C44.9819 27.0116 44.2696 26.2824 42.0906 25.7668C40.0906 25.7668 37.5906 25.7668 37.0906 26.2668L32.5906 30.2668C32.215 30.576 32.2045 30.7943 32.5906 31.2668L37.0906 35.2668C38.0906 35.7668 40.0906 35.7668 42.0905 35.7668H42.0906Z" stroke="black"/>
<path d="M20.0906 35.7668C17.0768 35.7668 17.2443 34.2061 17.0906 30.7668V29.2668C17.1993 27.0116 17.9115 26.2824 20.0906 25.7668C22.0906 25.7668 24.5906 25.7668 25.0906 26.2668L29.5906 30.2668C29.9662 30.576 29.9766 30.7943 29.5906 31.2668L25.0906 35.2668C24.0906 35.7668 22.0906 35.7668 20.0906 35.7668H20.0906Z" stroke="black"/>
<path d="M36.0906 18.7669C36.0906 15.7531 34.5299 15.9206 31.0906 15.7669L29.5906 15.7669C27.3353 15.8756 26.6061 16.5878 26.0906 18.7669C26.0906 20.7668 26.0906 23.2668 26.5906 23.7669L30.5906 28.2669C30.8997 28.6424 31.118 28.6529 31.5906 28.2669L35.5906 23.7669C36.0906 22.7668 36.0906 20.7669 36.0906 18.7669L36.0906 18.7669Z" stroke="black"/>
<path d="M36.0906 42.5525C36.0906 45.5662 34.5299 45.3988 31.0906 45.5525L29.5906 45.5525C27.3353 45.4438 26.6061 44.7315 26.0906 42.5525C26.0906 40.5525 26.0906 38.0525 26.5906 37.5525L30.5906 33.0525C30.8997 32.6769 31.118 32.6664 31.5906 33.0525L35.5906 37.5525C36.0906 38.5525 36.0906 40.5525 36.0906 42.5524L36.0906 42.5525Z" stroke="black"/>
<circle cx="31.0906" cy="30.7668" r="19.5" stroke="black"/>
</svg>
