<svg width="166" height="111" viewBox="0 0 166 111" fill="none" xmlns="http://www.w3.org/2000/svg">
<path d="M82.5 1.87533C72.2262 1.85793 61.0021 2.53146 50.8184 3.5084M50.8184 3.5084C34.7563 5.04927 21.2825 7.34491 18.2086 8.87474C13.1858 11.3745 4.32707 41.5837 1.13125 65.37C0.325306 74.7421 0.254605 79.9958 1.13125 89.3679C3.47188 105.162 6.65632 108.786 22.2268 109.866C23.7337 109.971 24.6216 109.145 25.2405 107.366C33.8837 82.5306 36.7929 74.3692 47.3407 70.8695C51.3589 70.3695 51.8612 71.8695 59.3953 71.8694H105.746C113.28 71.8695 113.782 70.3695 117.8 70.8695C128.348 74.3692 131.257 82.5306 139.9 107.366C140.519 109.145 141.407 109.971 142.914 109.866C146.649 109.607 149.672 109.201 152.141 108.517M50.8184 3.5084C48.5 5.875 48.65 6.875 49 10.375C49.5 15.375 51.935 22.875 52.5 25.875C52.5637 26.2131 52.618 26.5462 52.6631 26.875M13 108.517C14.8042 108.949 16.6917 106.232 18.5 100.875C24.0473 82.5806 27.9025 73.2019 36 57.875C41 48.375 43.5 47.875 48.5 40.875C51.792 36.1721 53.3779 32.0794 52.6631 26.875M82.6409 1.87533C92.9147 1.85793 104.139 2.53146 114.322 3.5084M114.322 3.5084C130.385 5.04927 143.858 7.34491 146.932 8.87474C151.955 11.3745 160.814 41.5837 164.01 65.37C164.816 74.7421 164.886 79.9958 164.01 89.3679C162.231 101.373 159.964 106.347 152.141 108.517M114.322 3.5084C116.597 5.82983 116.496 6.83633 116.161 10.1773L116.141 10.375C115.641 15.375 113.206 22.875 112.641 25.875C112.577 26.2131 112.523 26.5462 112.478 26.875M152.141 108.517C150.337 108.949 148.449 106.232 146.641 100.875C141.094 82.5806 137.238 73.2019 129.141 57.875C124.141 48.375 121.641 47.875 116.641 40.875C113.349 36.1721 111.763 32.0794 112.478 26.875M52.6631 26.875C55.5 37.375 57 37.875 82 37.875C110.967 37.875 111.104 36.8773 112.473 26.9091L112.478 26.875M42 4.375C42 1.87497 42 1.23215 39.5 0.875004C35.9999 0.374982 33.4999 0.375016 30.5 0.875004C27.287 1.5176 23.6207 3.37926 22 4.375C19.8336 5.70597 20.2978 6.27086 20.5 7.875M123.5 4.375C123.5 1.87497 123.5 1.23215 126 0.875004C129.5 0.374982 132 0.375016 135 0.875004C138.213 1.5176 141.879 3.37926 143.5 4.375C145.666 5.70597 145.202 6.27086 145 7.875" stroke="black"/>
<rect x="119.982" y="9.90495" width="4.12979" height="7.53846" rx="2.06489" transform="rotate(7.05973 119.982 9.90495)" stroke="black"/>
<rect x="-0.434757" y="0.557661" width="4.12979" height="7.53846" rx="2.06489" transform="matrix(-0.992419 0.122904 0.122904 0.992419 45.6561 9.40495)" stroke="black"/>
<circle cx="122.5" cy="31.875" r="5.5" stroke="black"/>
<circle cx="146.5" cy="31.875" r="5.5" stroke="black"/>
<circle cx="146.5" cy="31.875" r="3.5" stroke="black"/>
<circle cx="134.5" cy="43.875" r="5.5" stroke="black"/>
<circle cx="134.5" cy="19.875" r="5.5" stroke="black"/>
<rect x="120" y="29.375" width="5" height="5" stroke="black"/>
<path d="M137.099 21.375H131.901L134.5 16.874L137.099 21.375Z" stroke="black"/>
<line x1="132.146" y1="46.5214" x2="137.146" y2="41.5214" stroke="black"/>
<line x1="137.146" y1="46.2286" x2="132.146" y2="41.2286" stroke="black"/>
<path d="M42.5 36.875C45.5138 36.875 45.3463 35.3143 45.5 31.875V30.375C45.3913 28.1198 44.6791 27.3906 42.5 26.875C40.5 26.875 38 26.875 37.5 27.375L33 31.375C32.6244 31.6841 32.6139 31.9024 33 32.375L37.5 36.375C38.5 36.875 40.5 36.875 42.5 36.875H42.5Z" stroke="black"/>
<path d="M20.5 36.875C17.4862 36.875 17.6537 35.3143 17.5 31.875V30.375C17.6087 28.1198 18.3209 27.3906 20.5 26.875C22.5 26.875 25 26.875 25.5 27.375L30 31.375C30.3756 31.6841 30.3861 31.9024 30 32.375L25.5 36.375C24.5 36.875 22.5 36.875 20.5 36.875H20.5Z" stroke="black"/>
<path d="M36.5 20.6907C36.5 17.8621 34.9393 18.0193 31.5 17.875L30 17.875C27.7448 17.977 27.0156 18.6455 26.5 20.6907C26.5 22.5677 26.5 24.9141 27 25.3834L31 29.6069C31.3091 29.9594 31.5274 29.9693 32 29.6069L36 25.3834C36.5 24.4449 36.5 22.5678 36.5 20.6907L36.5 20.6907Z" stroke="black"/>
<path d="M36.5 43.0593C36.5 45.8879 34.9393 45.7307 31.5 45.875L30 45.875C27.7448 45.773 27.0156 45.1045 26.5 43.0593C26.5 41.1823 26.5 38.8359 27 38.3666L31 34.1431C31.3091 33.7906 31.5274 33.7807 32 34.1431L36 38.3666C36.5 39.3051 36.5 41.1822 36.5 43.0593L36.5 43.0593Z" stroke="black"/>
<circle cx="57" cy="54.375" r="10" stroke="black"/>
<circle cx="109" cy="54.375" r="10" stroke="black"/>
<circle cx="76.5" cy="42.875" r="1" fill="black"/>
<circle cx="80.5" cy="42.875" r="1" fill="black"/>
<circle cx="84.5" cy="42.875" r="1" fill="black"/>
<circle cx="88.5" cy="42.875" r="1" fill="black"/>
<circle cx="86.5" cy="45.875" r="1" fill="black"/>
<circle cx="82.5" cy="45.875" r="1" fill="black"/>
<circle cx="83" cy="67.375" r="0.5" fill="black"/>
<circle cx="78.5" cy="45.875" r="1" fill="black"/>
<path d="M79.5 62.375H86.5C86.7761 62.375 87 62.5989 87 62.875V64.375H79V62.875C79 62.5989 79.2239 62.375 79.5 62.375Z" stroke="black"/>
</svg>
