<svg width="174" height="97" viewBox="0 0 174 97" fill="none" xmlns="http://www.w3.org/2000/svg">
<path d="M41.0066 87.5C32.2218 94.2882 32.0066 96.5 23.5067 96C7.86363 95.0798 0.24126 84 0.506699 70.5C0.847184 53.1791 4.61972 39.8248 14.5067 24.5C24.5067 9 37.0067 0.499974 51.0067 0.5C65.0067 0.500026 73.8748 5.83909 86.5067 6C99.1386 5.83909 108.007 0.500026 122.007 0.5C136.007 0.499974 148.507 9 158.507 24.5C168.394 39.8248 172.166 53.1791 172.507 70.5C172.772 84 165.15 95.0798 149.507 96C141.007 96.5 140.791 94.2882 132.007 87.5M41.0066 87.5C52.0066 79 72.0066 70.5 86.5067 70.5C101.007 70.5 121.007 79 132.007 87.5M41.0066 87.5C19.5064 82.5 4.38359 68 7.00656 52.5C12.5066 20 29.3136 8.58812 86.5065 8.5C143.699 8.58812 160.507 20 166.007 52.5C168.63 68 153.507 82.5 132.007 87.5" stroke="black"/>
<circle cx="114.007" cy="43" r="5" stroke="black"/>
<circle cx="121.007" cy="64" r="8" stroke="black"/>
<circle cx="40.0066" cy="47" r="17" stroke="black"/>
<path d="M37.2927 31H42.7205C43.5489 31 44.2205 31.6716 44.2205 32.5V40.2861C44.2207 41.6665 45.3401 42.7859 46.7205 42.7861H54.5066C55.335 42.7861 56.0066 43.4577 56.0066 44.2861V49.7139C56.0066 50.5423 55.335 51.2139 54.5066 51.2139H46.7205C45.3401 51.2141 44.2207 52.3335 44.2205 53.7139V61.5C44.2205 62.3284 43.5489 63 42.7205 63H37.2927C36.4643 63 35.7927 62.3284 35.7927 61.5V53.7139C35.7925 52.3335 34.6731 51.2141 33.2927 51.2139H25.5066C24.6782 51.2139 24.0066 50.5423 24.0066 49.7139V44.2861C24.0066 43.4577 24.6782 42.7861 25.5066 42.7861H33.2927C34.6731 42.7859 35.7925 41.6665 35.7927 40.2861V32.5C35.7927 31.6716 36.4643 31 37.2927 31Z" stroke="black"/>
<circle cx="40.0066" cy="47" r="24" stroke="black"/>
<circle cx="136.007" cy="51" r="8" stroke="black"/>
<circle cx="154.007" cy="45" r="8" stroke="black"/>
<circle cx="126.007" cy="32" r="5" stroke="black"/>
<circle cx="140.007" cy="27" r="5" stroke="black"/>
<path d="M88.5066 57C91.4956 57 94.1785 57.497 96.0955 58.2812C97.055 58.6738 97.7989 59.128 98.2947 59.6074C98.789 60.0855 99.0066 60.5562 99.0066 61C99.0066 61.4438 98.789 61.9145 98.2947 62.3926C97.7989 62.872 97.055 63.3262 96.0955 63.7188C94.1785 64.503 91.4956 65 88.5066 65C85.5175 65 82.8347 64.503 80.9177 63.7188C79.9582 63.3262 79.2143 62.872 78.7185 62.3926C78.2242 61.9145 78.0066 61.4438 78.0066 61C78.0066 60.5562 78.2242 60.0855 78.7185 59.6074C79.2143 59.128 79.9582 58.6738 80.9177 58.2812C82.8347 57.497 85.5175 57 88.5066 57Z" stroke="black"/>
<path d="M70.5066 26C70.5066 16 74.0066 16 87.0066 16C101.507 16 102.507 16 103.507 26" stroke="black" stroke-linecap="round"/>
</svg>
