<svg width="214" height="114" viewBox="0 0 214 114" fill="none" xmlns="http://www.w3.org/2000/svg">
<path d="M30 1.54138H184C200.292 1.54138 213.5 14.749 213.5 31.0414V82.0414C213.5 98.8861 199.845 112.541 183 112.541H31C14.1553 112.541 0.5 98.8861 0.5 82.0414V31.0414C0.5 14.749 13.7076 1.54138 30 1.54138Z" stroke="black"/>
<path d="M27 1.54138V0.541382C18.4495 1.22286 8.5 5.04138 3.5 16.0414V18.0414" stroke="black"/>
<path d="M187 1.54138V0.541382C195.55 1.22286 205.5 5.04138 210.5 16.0414V18.0414" stroke="black"/>
<rect x="49.5" y="24.5414" width="114" height="65" rx="0.5" stroke="black"/>
<rect x="46.5" y="22.5414" width="120" height="69" rx="1.5" stroke="black"/>
<circle cx="194.5" cy="27.5414" r="7" stroke="black"/>
<circle cx="18.5" cy="27.5414" r="7" stroke="black"/>
<circle cx="177.5" cy="51.5414" r="4" stroke="black"/>
<circle cx="195.5" cy="51.5414" r="4" stroke="black"/>
<circle cx="186.5" cy="42.5414" r="4" stroke="black"/>
<circle cx="186.5" cy="60.5414" r="4" stroke="black"/>
<circle cx="177.5" cy="73.5414" r="3" stroke="black"/>
<circle cx="177.5" cy="84.5414" r="3" stroke="black"/>
<circle cx="162.5" cy="102.541" r="2" stroke="black"/>
<circle cx="140.5" cy="102.541" r="0.5" fill="black"/>
<circle cx="94.5" cy="102.541" r="0.5" fill="black"/>
<circle cx="106.5" cy="102.541" r="4" stroke="black"/>
<rect x="175.5" y="101.541" width="3" height="1" rx="0.5" stroke="black"/>
<rect x="34.5" y="101.541" width="3" height="1" rx="0.5" stroke="black"/>
<rect x="149.5" y="100.541" width="4" height="4" rx="0.5" stroke="black"/>
<circle cx="107" cy="10.0414" r="2.5" stroke="black"/>
<rect x="76.5" y="6.54138" width="60" height="7" rx="3.5" stroke="black"/>
<rect x="23.5" y="76.5414" width="9" height="4" rx="0.5" stroke="black"/>
<path d="M30.6094 41.5414V48.7601H37.5V54.3226H30.6094V61.5414H24.5V54.3226H17.5V48.7601H24.5V41.5414H30.6094Z" stroke="black"/>
<line x1="20" y1="51.5414" x2="24" y2="51.5414" stroke="black"/>
<line x1="31" y1="51.5414" x2="35" y2="51.5414" stroke="black"/>
<line x1="27.5" y1="48.0414" x2="27.5" y2="44.0414" stroke="black"/>
<line x1="27.5" y1="55.0414" x2="27.5" y2="59.0414" stroke="black"/>
</svg>
