<svg width="164" height="117" viewBox="0 0 164 117" fill="none" xmlns="http://www.w3.org/2000/svg">
<path d="M47.5405 3.5C50.5405 3.5 58.2121 8.79289 61.0405 9.5C69.0405 11.5 72.9624 11.1156 81.0403 11C89.1182 11.1156 93.5403 11.5 101.54 9.5C104.369 8.79289 112.04 3.5 115.04 3.5M47.5405 3.5C44.0405 3.5 30.7389 5.84739 21.0405 9.5M47.5405 3.5C47.0405 1.5 46.5405 0.5 44.5405 0.5C42.5405 0.5 36.0405 1 33.5405 1.5C29.0203 2.40405 25.5405 4 22.5405 6C21.2878 6.83517 20.9408 7.92602 21.0405 9.5M21.0405 9.5C19.5528 10.456 19.0196 11.1195 18.5405 12.5C8.43787 33.455 5.04053 46.5 1.5405 69.5C-0.459471 89 0.540527 97 3.5405 109.5C4.65399 114.14 9.71574 116.845 16.5404 115M16.5404 115C24.524 112.842 33.0055 105.53 47.4514 93.0768L47.5405 93C51.6005 89.5 61.0404 85.5 67.0404 85.5H81.3534H95.5404C101.54 85.5 110.98 89.5 115.04 93L115.129 93.0768C129.575 105.53 138.057 112.842 146.04 115M16.5404 115C20.0405 114.054 31.0337 103.342 40.0405 94C50.7778 83.9168 56.0405 82 81.3534 81.9779C105.541 81.9779 111.803 83.9168 122.54 94C131.547 103.342 142.54 114.054 146.04 115M115.04 3.5C118.54 3.5 131.842 5.84739 141.54 9.5M115.04 3.5C115.54 1.5 116.04 0.5 118.04 0.5C120.04 0.5 126.54 1 129.04 1.5C133.561 2.40405 137.04 4 140.04 6C141.293 6.83517 141.64 7.92602 141.54 9.5M141.54 9.5C143.028 10.456 143.561 11.1195 144.04 12.5C154.143 33.455 156.657 46.3904 161.04 69.5C164.041 93.5 163.041 99.5 159.04 109.5C157.268 113.93 152.865 116.845 146.04 115" stroke="black"/>
<circle cx="33.5405" cy="29" r="10.5" stroke="black"/>
<circle cx="104.541" cy="57" r="10.5" stroke="black"/>
<circle cx="97.5405" cy="58" r="1" fill="black"/>
<circle cx="111.541" cy="58" r="1" fill="black"/>
<circle cx="104.541" cy="50" r="1" fill="black"/>
<circle cx="104.541" cy="64" r="1" fill="black"/>
<path d="M81.5405 21.5C83.8219 21.5 85.8922 22.3984 87.4194 23.8613C89.0352 25.4092 90.0405 27.5867 90.0405 30C90.0405 31.9567 89.3796 33.7579 88.269 35.1943C86.7136 37.206 84.2784 38.5 81.5405 38.5C78.8027 38.5 76.3674 37.206 74.812 35.1943C73.7014 33.7579 73.0405 31.9567 73.0405 30C73.0405 27.5867 74.0458 25.4092 75.6616 23.8613C77.1888 22.3984 79.2592 21.5 81.5405 21.5Z" stroke="black"/>
<circle cx="116.541" cy="29" r="5.5" stroke="black"/>
<path d="M98.5405 26.5C101.136 26.5 103.041 28.1654 103.041 30C103.041 31.8346 101.136 33.5 98.5405 33.5C95.9454 33.5 94.0405 31.8346 94.0405 30C94.0405 28.1654 95.9454 26.5 98.5405 26.5Z" stroke="black"/>
<path d="M64.5405 26.5C67.1357 26.5 69.0405 28.1654 69.0405 30C69.0405 31.8346 67.1357 33.5 64.5405 33.5C61.9454 33.5 60.0405 31.8346 60.0405 30C60.0405 28.1654 61.9454 26.5 64.5405 26.5Z" stroke="black"/>
<circle cx="142.541" cy="29" r="5.5" stroke="black"/>
<circle cx="129.541" cy="42" r="5.5" stroke="black"/>
<circle cx="129.541" cy="17" r="5.5" stroke="black"/>
<circle cx="56.5405" cy="57" r="14.5" stroke="black"/>
<path d="M55.0405 44.5H57.7905C59.1712 44.5 60.2905 45.6193 60.2905 47V49.25C60.2905 51.183 61.8575 52.75 63.7905 52.75H66.5405C67.9212 52.75 69.0405 53.8693 69.0405 55.25V57.5C69.0405 58.8807 67.9212 60 66.5405 60H63.7905C61.8575 60 60.2905 61.567 60.2905 63.5V67C60.2905 68.3807 59.1712 69.5 57.7905 69.5H55.0405C53.6598 69.5 52.5405 68.3807 52.5405 67V63.5C52.5405 61.567 50.9735 60 49.0405 60H46.5405C45.1598 60 44.0405 58.8807 44.0405 57.5V55.25C44.0405 53.8693 45.1598 52.75 46.5405 52.75H49.0405C50.9735 52.75 52.5405 51.183 52.5405 49.25V47C52.5405 45.6193 53.6598 44.5 55.0405 44.5Z" stroke="black"/>
<circle cx="33.5405" cy="29" r="10.5" stroke="black"/>
<circle cx="26.5405" cy="29" r="1" fill="black"/>
<circle cx="40.5405" cy="29" r="1" fill="black"/>
<circle cx="33.5405" cy="21" r="1" fill="black"/>
<circle cx="33.5405" cy="35" r="1" fill="black"/>
</svg>
