<svg width="164" height="116" viewBox="0 0 164 116" fill="none" xmlns="http://www.w3.org/2000/svg">
<path d="M19.5798 19.8267C20.313 18.0417 21.5797 16.3267 23.0798 15.3267C29.3306 11.605 35.6307 8.14311 38.0799 7.32668C48.5798 3.82664 51.0798 4.82667 60.0799 6.82668C60.5798 6.93777 73.0798 6.82668 81.5799 6.82664C90.08 6.82668 103.08 6.93773 103.58 6.82664C112.58 4.82664 115.08 3.82661 125.58 7.32664C128.029 8.14307 134.329 11.605 140.58 15.3267C142.08 16.3267 143.347 18.0417 144.08 19.8267M19.5798 19.8267C8.07974 47.8267 -0.420172 76.8267 0.579939 91.3267C1.07994 104.827 8.57983 111.827 14.5798 113.827C16.9046 114.602 17.3539 114.885 18.0798 114.327C24.5798 109.327 29.3803 104.701 37.5799 93.3267C48.5799 79.3267 54.0799 82.3266 81.5799 82.3266C109.08 82.3266 115.08 79.3266 126.08 93.3266C134.28 104.701 139.08 109.327 145.58 114.327C146.306 114.885 146.755 114.602 149.08 113.827C155.08 111.827 162.58 104.827 163.08 91.3266C164.08 76.8266 155.58 47.8267 144.08 19.8267M19.5798 19.8267C20.4297 18.1686 29.5799 13.0437 35.5799 10.3267C46.8582 5.21959 51.8123 6.0534 58.0799 14.8267C61.9172 19.4327 66.2225 23.8268 70.5799 23.8267L93.0799 23.8267C97.4373 23.8268 101.743 19.4328 105.58 14.8267C111.848 6.05344 116.802 5.21964 128.08 10.3267C134.08 13.0437 143.58 18.6088 144.08 19.8267M25.58 13.8267C25.5158 12.9772 25.8733 12.064 26.0798 10.8267C26.58 7.82666 31.4214 5.78281 38.5798 3.32668C48.4743 -0.0203657 52.4313 -0.447992 55.5798 2.32668C57.1857 3.70552 58.0799 3.82668 60.5798 3.82668L103.08 3.82669C105.58 3.82669 106.474 3.70553 108.08 2.32669C111.228 -0.447977 115.185 -0.0203502 125.08 3.32669C132.238 5.78283 137.08 7.82668 137.58 10.8267C137.786 12.064 138.144 12.9772 138.08 13.8267" stroke="black"/>
<path d="M58.4255 47.3267H62.5027C63.3311 47.3267 64.0027 47.9982 64.0027 48.8267V52.4419C64.0027 53.8225 65.1221 54.9418 66.5027 54.9419H70.5798C71.4082 54.9419 72.0798 55.6135 72.0798 56.4419V60.0571C72.0798 60.8856 71.4083 61.5571 70.5798 61.5571H66.5027C65.1222 61.5573 64.0028 62.6766 64.0027 64.0571V68.8267C64.0027 69.6551 63.3311 70.3267 62.5027 70.3267H58.4255C57.5973 70.3264 56.9255 69.6549 56.9255 68.8267V64.0571C56.9254 62.6766 55.8061 61.5571 54.4255 61.5571H50.5798C49.7514 61.5571 49.0798 60.8856 49.0798 60.0571V56.4419C49.0799 55.6135 49.7515 54.9419 50.5798 54.9419H54.4255C55.8063 54.9419 56.9255 53.8226 56.9255 52.4419V48.8267C56.9255 47.9984 57.5973 47.3269 58.4255 47.3267Z" stroke="black"/>
<circle cx="103.58" cy="56.8267" r="9.5" stroke="black"/>
<circle cx="103.58" cy="56.8267" r="6.5" stroke="black"/>
<circle cx="69.5798" cy="31.8267" r="3.5" stroke="black"/>
<circle cx="93.5798" cy="31.8267" r="3.5" stroke="black"/>
<circle cx="113.58" cy="31.8267" r="5.5" stroke="black"/>
<circle cx="125.58" cy="42.8267" r="5.5" stroke="black"/>
<circle cx="125.58" cy="20.8267" r="5.5" stroke="black"/>
<circle cx="137.58" cy="31.8267" r="5.5" stroke="black"/>
<circle cx="39.5798" cy="31.8267" r="9.5" stroke="black"/>
<circle cx="39.5798" cy="31.8267" r="5.5" stroke="black"/>
<circle cx="81.5798" cy="14.8267" r="6.5" stroke="black"/>
<path d="M84.4863 10.4814C83.9142 10.8884 83.4162 11.3919 83.1156 12.1408L83.0003 12.4287L83.2067 12.6601C84.1902 13.7612 84.7666 14.46 85.1734 15.3573C85.3666 15.7836 85.5235 16.2628 85.663 16.8592C85.338 16.4256 85.0121 16.0523 84.6831 15.7233C83.8938 14.934 83.1047 14.4093 82.3567 13.9106L82.0874 13.7311L81.8139 13.9037C80.7063 14.6006 79.89 15.0152 79.0849 15.6715C78.6488 16.0271 78.2127 16.4551 77.7115 17.0394C78.2628 15.2131 78.9142 13.8987 80.3921 12.7167L80.7498 12.4308L80.4957 12.0496C79.9499 11.231 79.4146 10.7897 78.8032 10.4345C78.7375 10.3963 78.669 10.3619 78.6016 10.3254C78.7369 10.3416 78.8695 10.3614 79.0014 10.3868C79.6811 10.5179 80.3738 10.7824 81.3561 11.2735L81.557 11.3736L81.7656 11.2907C83.0142 10.7913 83.7143 10.5533 84.344 10.4359C84.4352 10.4189 84.5255 10.4055 84.6161 10.3931C84.5724 10.4225 84.5285 10.4514 84.4863 10.4814Z" stroke="black"/>
</svg>
