<svg width="168" height="118" viewBox="0 0 168 118" fill="none" xmlns="http://www.w3.org/2000/svg">
<path d="M18.2883 27.948C21.6256 17.9704 23.7883 13.448 32.7883 10.448C46.075 6.01905 57.7883 5.44797 83.7883 5.44795C109.788 5.44797 121.502 6.01904 134.788 10.448C143.788 13.448 145.951 17.9704 149.288 27.948M18.2883 27.948C10.5011 47.4683 6.94554 59.0073 1.78827 80.448C-1.2185 92.948 1.20918 105.463 7.28827 111.448C9.92452 113.821 11.4703 114.718 14.2883 115.948C15.707 116.567 16.2883 116.952 17.2883 116.78M18.2883 27.948C20.9323 20.043 22.6253 15.8531 25.8059 12.948M56.7883 3.94791C57.7552 3.91663 59.2526 3.94796 60.2883 3.94796H83.7883L107.288 3.94795C108.324 3.94795 109.821 3.91662 110.788 3.94789M56.7883 3.94791C49.8203 4.17328 44.9419 5.24874 38.2883 6.94796C32.1482 8.99469 28.4594 10.5242 25.8059 12.948M56.7883 3.94791C56.1242 3.05922 55.9459 2.6402 55.2883 1.94798C53.2508 -0.197019 50.4399 0.399127 44.2883 1.44796C38.4582 2.77558 35.3503 3.97728 30.2883 7.44796C28.2327 9.1732 27.3129 10.4644 25.8059 12.948M17.2883 116.78C17.761 116.699 18.2174 116.437 18.7884 115.948C25.7884 109.948 29.2884 106.448 34.7883 99.448C37.4784 95.69 39.0214 93.7633 41.7883 90.448C48.2884 82.948 51.7885 83.948 83.7883 83.948C115.788 83.948 119.288 82.9479 125.788 90.448C128.555 93.7633 130.098 95.69 132.788 99.448C138.288 106.448 141.788 109.948 148.788 115.948C149.359 116.437 149.816 116.699 150.288 116.78M17.2883 116.78C20.7883 111.448 28.0383 104.948 34.2883 97.448C41.7883 88.448 46.2883 82.448 59.2883 82.448L83.7883 82.448H108.288C121.288 82.448 125.788 88.448 133.288 97.448C139.538 104.948 146.788 111.448 150.288 116.78M149.288 27.948C157.076 47.4683 160.631 59.0073 165.788 80.448C168.795 92.9479 166.367 105.463 160.288 111.448C157.652 113.821 156.106 114.718 153.288 115.948C151.87 116.567 151.288 116.952 150.288 116.78M149.288 27.948C146.644 20.0429 144.951 15.8531 141.771 12.948M110.788 3.94789C117.756 4.17326 122.635 5.24873 129.288 6.94795C135.428 8.99467 139.117 10.5242 141.771 12.948M110.788 3.94789C111.452 3.0592 111.631 2.64019 112.288 1.94796C114.326 -0.197031 117.137 0.399115 123.288 1.44795C129.118 2.77557 132.226 3.97727 137.288 7.44795C139.344 9.17318 140.264 10.4644 141.771 12.948" stroke="black"/>
<circle cx="114.788" cy="32.948" r="5.5" stroke="black"/>
<circle cx="126.788" cy="43.948" r="5.5" stroke="black"/>
<circle cx="126.788" cy="21.948" r="5.5" stroke="black"/>
<circle cx="138.788" cy="32.948" r="5.5" stroke="black"/>
<circle cx="40.7883" cy="32.948" r="10.5" stroke="black"/>
<circle cx="40.7883" cy="32.948" r="6.5" stroke="black"/>
<circle cx="105.788" cy="57.948" r="9.5" stroke="black"/>
<circle cx="105.788" cy="57.948" r="6.5" stroke="black"/>
<circle cx="71.7883" cy="32.948" r="3.5" stroke="black"/>
<circle cx="95.7883" cy="32.948" r="3.5" stroke="black"/>
<rect x="79.2883" y="39.448" width="9" height="4" rx="2" stroke="black"/>
<circle cx="61.7883" cy="59.948" r="13.5" stroke="black"/>
<circle cx="83.7883" cy="15.948" r="6.5" stroke="black"/>
<path d="M86.6948 11.6028C86.1227 12.0097 85.6247 12.5132 85.3241 13.2621L85.2088 13.5501L85.4152 13.7814C86.3987 14.8825 86.975 15.5813 87.3819 16.4786C87.5751 16.9049 87.732 17.3842 87.8715 17.9806C87.5465 17.547 87.2206 17.1736 86.8916 16.8446C86.1023 16.0554 85.3132 15.5307 84.5652 15.032L84.2959 14.8524L84.0224 15.0251C82.9148 15.722 82.0985 16.1365 81.2934 16.7928C80.8573 17.1484 80.4212 17.5765 79.92 18.1608C80.4713 16.3344 81.1227 15.0201 82.6006 13.838L82.9583 13.5522L82.7042 13.171C82.1584 12.3523 81.6231 11.911 81.0117 11.5558C80.946 11.5177 80.8775 11.4833 80.8101 11.4467C80.9454 11.4629 81.078 11.4828 81.2099 11.5082C81.8896 11.6393 82.5823 11.9037 83.5646 12.3948L83.7655 12.495L83.9741 12.4121C85.2227 11.9126 85.9228 11.6746 86.5525 11.5572C86.6437 11.5402 86.734 11.5269 86.8246 11.5144C86.7809 11.5439 86.737 11.5728 86.6948 11.6028Z" stroke="black"/>
<path d="M61.7285 47.1953C62.8131 47.1917 63.8966 47.4148 65.2314 47.8936C65.4114 47.9581 65.5381 48.1357 65.5381 48.3447V54.1982C65.5382 55.0265 66.2099 55.6981 67.0381 55.6982H73.3545C73.5666 55.6983 73.7514 55.8308 73.8174 56.0225C74.281 57.3686 74.5519 58.4269 74.6055 59.4424C74.6585 60.4488 74.4989 61.4426 74.0605 62.6533C73.9985 62.8242 73.8264 62.9482 73.6191 62.9482H67.0381C66.2098 62.9484 65.5381 63.6199 65.5381 64.4482V71.5127C65.5381 71.7222 65.4104 71.9004 65.2295 71.9648C63.8767 72.447 62.7807 72.6735 61.6934 72.6709C60.6049 72.6682 59.4919 72.4364 58.1045 71.959C57.9191 71.8952 57.7882 71.7145 57.7881 71.5029V64.4482C57.7881 63.6198 57.1165 62.9482 56.2881 62.9482H50.0693C49.8376 62.9482 49.6423 62.7908 49.5938 62.5771C49.2503 61.0648 49.1348 60.0208 49.1602 59.0791C49.1857 58.1334 49.3538 57.2677 49.6064 56.0928C49.6559 55.863 49.8599 55.6983 50.0957 55.6982H56.2881C57.1164 55.6982 57.7879 55.0266 57.7881 54.1982V48.3633C57.7882 48.1504 57.9206 47.9686 58.1084 47.9053C59.5197 47.4306 60.6415 47.199 61.7285 47.1953Z" stroke="black"/>
</svg>
