<svg width="148" height="115" viewBox="0 0 148 115" fill="none" xmlns="http://www.w3.org/2000/svg">
<path d="M35.8599 2.5C36.8599 1 37.8599 0.592145 39.8599 1C52.4678 3.57111 61.3598 5 73.8599 5C87.8599 5 95.7519 3.57111 108.36 1C110.36 0.592146 111.36 1 112.36 2.5M35.8599 2.5C34.3599 1.5 32.9693 0.5 31.8599 0.5C30.8599 0.5 29.0406 2.03478 28.3599 2.49999C12.0862 13.6225 4.35985 29 1.35989 51.5C0.862102 55.2335 0.246247 69.5744 0.609448 84.5C0.779787 91.5 1.25291 95.0594 1.85986 99.5C2.61162 105 5.85986 111.309 8.85989 112.5C12.1207 113.795 13.5263 114 16.8599 114M35.8599 2.5C44.1665 7.15978 49.3065 9.04396 59.3599 11C50.9906 15.8413 45.8599 24.636 45.8599 35C45.8599 43.3628 49.5261 50.8694 55.3391 56L52.8599 59M16.8599 114C17.8599 114 17.8599 114 18.8599 113.5C19.8599 113 28.4793 99.7051 36.8599 89.5M16.8599 114C23.47 101.943 35.8599 83.5 36.8599 84.5C36.8599 86 36.8599 86.5 36.8599 87M36.8599 89.5C49.2424 96.9268 61.8599 100 73.8599 100C85.8599 100 98.9774 96.9268 111.36 89.5M36.8599 89.5C36.8599 88.5 36.8879 87.7581 36.8599 87M112.36 2.5C113.86 1.5 115.251 0.500001 116.36 0.500001C117.36 0.500001 119.179 2.03478 119.86 2.49999C136.134 13.6225 143.86 29 146.86 51.5C147.358 55.2335 147.974 69.5744 147.61 84.5C147.44 91.5 146.967 95.0594 146.36 99.5C145.608 105 142.36 111.309 139.36 112.5C136.099 113.795 134.693 114 131.36 114M112.36 2.5C104.053 7.15978 97.9133 9.04396 87.8599 11C96.2291 15.8413 101.86 24.636 101.86 35C101.86 43.3628 97.1728 51.3694 91.3599 56.5C93.0286 59.3213 94.3599 61.5 94.3599 63C92.7123 71.7077 100.86 80.5 107.36 80.5M131.36 114C130.36 114 130.36 114 129.36 113.5C128.36 113 119.74 99.7051 111.36 89.5M131.36 114C124.75 101.943 108.36 79.5 107.36 80.5M111.36 89.5C107.36 84.6291 106.86 84.5 107.36 80.5M36.8599 87C44.8599 85.5 54.3599 79 53.3599 64" stroke="black"/>
<circle cx="73.8599" cy="35" r="22.5" stroke="black"/>
<path d="M73.1108 24.4766L73.3188 24.5713L73.5259 24.4766L82.2544 20.5059L75.9956 27.1572L75.687 27.4854L75.9819 27.8271L83.0083 35.9629L73.6001 29.5859L73.3188 29.3955L73.0376 29.5869L63.4419 36.1318L70.2466 27.8164L70.5161 27.4873L70.2349 27.1689L64.2935 20.4355L73.1108 24.4766Z" stroke="black"/>
<path d="M109.816 30.7665C110.848 30.3983 112.054 30.6595 113.197 31.4927C114.337 32.324 115.366 33.697 115.982 35.4249C116.599 37.153 116.672 38.8677 116.316 40.2331C115.959 41.6014 115.19 42.5676 114.158 42.9358C113.127 43.3038 111.92 43.0427 110.777 42.2096C109.637 41.3783 108.608 40.0045 107.991 38.2764C107.375 36.5485 107.302 34.8345 107.658 33.4691C108.015 32.1008 108.784 31.1347 109.816 30.7665Z" stroke="black"/>
<path d="M109.494 17.0648C110.526 16.6966 111.733 16.9578 112.875 17.791C114.016 18.6223 115.044 19.9953 115.661 21.7232C116.277 23.4514 116.351 25.166 115.994 26.5314C115.637 27.8998 114.868 28.866 113.837 29.2341C112.805 29.6022 111.598 29.341 110.456 28.5079C109.315 27.6766 108.287 26.3029 107.67 24.5747C107.053 22.8469 106.98 21.1328 107.337 19.7675C107.694 18.3991 108.463 17.433 109.494 17.0648Z" stroke="black"/>
<path d="M114.845 7.01844C115.384 6.70618 116.169 6.75274 117.075 7.26569C117.969 7.77199 118.892 8.69091 119.602 9.916C120.313 11.1411 120.651 12.3987 120.646 13.4264C120.641 14.4677 120.292 15.1716 119.753 15.4839C119.215 15.7959 118.431 15.749 117.525 15.2361C116.63 14.7298 115.707 13.8109 114.997 12.5858C114.287 11.3607 113.948 10.1031 113.953 9.07547C113.958 8.03446 114.307 7.3308 114.845 7.01844Z" stroke="black"/>
<path d="M125.586 14.4361C126.059 14.0313 126.839 13.9345 127.824 14.2744C128.795 14.6099 129.87 15.3459 130.79 16.4216C131.711 17.4973 132.273 18.6725 132.455 19.684C132.639 20.7089 132.423 21.4646 131.95 21.8695C131.477 22.2742 130.697 22.3704 129.713 22.0306C128.742 21.6952 127.668 20.9592 126.747 19.8834C125.826 18.8077 125.264 17.6325 125.082 16.621C124.898 15.5964 125.114 14.8411 125.586 14.4361Z" stroke="black"/>
<path d="M121.494 25.0648C122.526 24.6966 123.733 24.9578 124.875 25.791C126.016 26.6223 127.044 27.9953 127.661 29.7232C128.277 31.4514 128.351 33.166 127.994 34.5314C127.637 35.8998 126.868 36.866 125.837 37.2341C124.805 37.6022 123.598 37.341 122.456 36.5079C121.315 35.6766 120.287 34.3029 119.67 32.5747C119.053 30.8469 118.98 29.1328 119.337 27.7675C119.694 26.3991 120.463 25.433 121.494 25.0648Z" stroke="black"/>
<path d="M122.494 39.0648C123.526 38.6966 124.733 38.9578 125.875 39.791C127.016 40.6223 128.044 41.9953 128.661 43.7232C129.277 45.4514 129.351 47.166 128.994 48.5314C128.637 49.8998 127.868 50.866 126.837 51.2341C125.805 51.6022 124.598 51.341 123.456 50.5079C122.315 49.6766 121.287 48.3029 120.67 46.5747C120.053 44.8469 119.98 43.1328 120.337 41.7675C120.694 40.3991 121.463 39.433 122.494 39.0648Z" stroke="black"/>
<circle cx="111.86" cy="64" r="14.5" stroke="black"/>
<circle cx="27.8599" cy="30" r="14.5" stroke="black"/>
<circle cx="34.8599" cy="64" r="14.5" stroke="black"/>
<path d="M62.3599 74.5C64.066 74.5 65.5887 74.98 66.6714 75.7295C67.7559 76.4804 68.3599 77.4679 68.3599 78.5C68.3599 79.5321 67.7559 80.5196 66.6714 81.2705C65.5887 82.02 64.066 82.5 62.3599 82.5C60.6538 82.5 59.131 82.02 58.0483 81.2705C56.9638 80.5196 56.3599 79.5321 56.3599 78.5C56.3599 77.4679 56.9638 76.4804 58.0483 75.7295C59.131 74.98 60.6538 74.5 62.3599 74.5Z" stroke="black"/>
<path d="M83.3599 74.5C85.066 74.5 86.5887 74.98 87.6714 75.7295C88.7559 76.4804 89.3599 77.4679 89.3599 78.5C89.3599 79.5321 88.7559 80.5196 87.6714 81.2705C86.5887 82.02 85.066 82.5 83.3599 82.5C81.6538 82.5 80.131 82.02 79.0483 81.2705C77.9638 80.5196 77.3599 79.5321 77.3599 78.5C77.3599 77.4679 77.9638 76.4804 79.0483 75.7295C80.131 74.98 81.6538 74.5 83.3599 74.5Z" stroke="black"/>
<circle cx="34.8599" cy="64" r="18.5" stroke="black"/>
<circle cx="111.86" cy="64" r="8.5" stroke="black"/>
<circle cx="27.8599" cy="30" r="8.5" stroke="black"/>
</svg>
